<svg id="automotive_icon" data-name="automotive icon" xmlns="http://www.w3.org/2000/svg" width="55.426" height="31.005" viewBox="0 0 55.426 31.005">
  <path id="Path_229" data-name="Path 229" d="M742.491,546.649c-2.988,0-5.975.014-8.963-.012a.908.908,0,0,0-1.058.741,6.066,6.066,0,0,1-11.464-.051.841.841,0,0,0-.977-.69c-1.154.03-2.31.019-3.465,0-.994-.018-1.31-.356-1.311-1.351q0-4.751,0-9.5a3.759,3.759,0,0,1,2.695-3.807,6.342,6.342,0,0,0,4.346-4.6,9.424,9.424,0,0,1,9.286-6.948q7.051-.012,14.1.006a7.225,7.225,0,0,1,6.448,3.432c1.358,2.109,2.658,4.256,3.959,6.4a1.352,1.352,0,0,0,1.134.7c2.764.33,5.558.466,8.284,1.05a6.848,6.848,0,0,1,5.168,6.472c.01,1.935-.385,3.837-.544,5.759-.036.436-.092.87-.159,1.3-.112.723-.394,1.017-1.133,1.063s-1.473.017-2.21.021c-.6,0-1.2.033-1.792,0a.743.743,0,0,0-.861.607,5.871,5.871,0,0,1-4.041,3.908,6.064,6.064,0,0,1-7.481-3.874.776.776,0,0,0-.882-.644c-1.513.026-3.027,0-4.541,0s-3.027,0-4.541,0Zm-.02-1.963c3.028,0,6.055-.015,9.083.013.565.005.706-.279.7-.714-.005-.471-.406-.283-.635-.284q-6.125-.018-12.25-.009c-.7,0-1.394.007-2.091-.008a.925.925,0,0,1-.981-.9.909.909,0,0,1,.973-.968c.219-.012.438-.007.657-.007,4.82,0,9.64,0,14.461.015a1.485,1.485,0,0,0,1.287-.549,5.68,5.68,0,0,1,4.7-2.066,5.823,5.823,0,0,1,4.485,2.162.974.974,0,0,0,.8.443q2.151-.021,4.3,0c.351,0,.507-.128.537-.473.064-.713.132-1.426.227-2.135.056-.423-.087-.562-.513-.548-.836.028-1.673.024-2.509.005a.969.969,0,0,1-1.03-.944.95.95,0,0,1,1.033-.926c.637-.013,1.275,0,1.912-.014.206-.005.492.12.6-.109.1-.2-.11-.4-.227-.583a5.591,5.591,0,0,0-4.544-2.458c-2.474-.24-4.942-.549-7.412-.83a1.4,1.4,0,0,1-1.112-.707c-.521-.871-1.062-1.731-1.6-2.593-1.053-1.689-1.984-3.457-3.161-5.066a4.823,4.823,0,0,0-3.967-2.006c-4.959-.055-9.919-.026-14.878-.011a7.524,7.524,0,0,0-4.591,1.623,7.769,7.769,0,0,0-2.654,4.148,7.908,7.908,0,0,1-5.3,5.545,2.183,2.183,0,0,0-1.634,2.355c-.009,1.713.01,3.426-.01,5.139,0,.439.132.6.58.59q1.7-.036,3.406,0a1.2,1.2,0,0,0,1.017-.477,6.069,6.069,0,0,1,10.546,2.7c.113.516.32.663.831.66C736.495,544.675,739.483,544.686,742.47,544.685Zm11.591.651a4.149,4.149,0,0,0,8.3-.027,4.149,4.149,0,1,0-8.3.027Zm-31.448-.036a4.123,4.123,0,0,0,4.11,4.158,4.146,4.146,0,1,0,.081-8.292A4.125,4.125,0,0,0,722.613,545.3Zm43.545-.616c.5,0,.995-.015,1.491,0,.456.018.514-.284.542-.618.034-.4-.256-.377-.52-.378-.995,0-1.989-.008-2.983,0-.225,0-.585-.12-.531.332.039.335.065.689.569.66C765.2,544.663,765.68,544.684,766.158,544.685Zm-47.149-.992v0c-.5,0-1,0-1.494,0-.337,0-.38.212-.378.478,0,.25-.011.5.341.506.956,0,1.912.012,2.868,0,.476-.008.409-.422.442-.715.043-.381-.28-.253-.465-.261C719.886,543.68,719.447,543.693,719.009,543.693Z" transform="translate(-715.251 -520.426)" fill="#fff"/>
  <path id="Path_230" data-name="Path 230" d="M804.816,553.835q-6.659,0-13.318,0c-1.079,0-1.514-.518-1.259-1.558a33.037,33.037,0,0,1,.973-3.506,6.2,6.2,0,0,1,5.549-4.318c2.538-.253,5.091-.066,7.637-.1,2.289-.029,4.579.034,6.867-.008a5,5,0,0,1,4.783,2.659c.955,1.654,1.992,3.26,2.987,4.892.269.442.57.886.239,1.437-.312.518-.817.494-1.319.494H804.816Zm-3.828-7.518c-1.154,0-2.307.011-3.461-.006-.4-.006-.574.107-.568.538q.027,2.237,0,4.475c-.005.425.162.551.564.549q3.52-.017,7.04,0c.445,0,.588-.179.584-.605-.014-1.452-.018-2.9.006-4.355.008-.49-.2-.609-.643-.6C803.335,546.331,802.161,546.318,800.988,546.318Zm15.74,5.55c-1.016-1.617-1.927-3.109-2.885-4.57a2.072,2.072,0,0,0-1.508-.876,45.544,45.544,0,0,0-4.831-.1c-.432-.014-.392.3-.393.582,0,1.454.013,2.908-.013,4.361-.009.484.177.613.631.609,2.091-.017,4.182-.007,6.273-.007Zm-21.646-2.442h0c0-.617,0-1.235,0-1.852,0-.149.078-.354-.1-.434-.161-.072-.284.1-.417.177a1.2,1.2,0,0,0-.142.109c-1.326,1.051-1.611,2.6-1.953,4.115-.067.3.167.315.375.317.6.006,1.2,0,1.792.011.333.006.46-.145.454-.472C795.073,550.74,795.082,550.083,795.082,549.426Z" transform="translate(-781.214 -541.462)" fill="#fff"/>
  <path id="Path_231" data-name="Path 231" d="M841.971,636.332a6.643,6.643,0,0,1-.953-.008.966.966,0,0,1-.888-1.021.943.943,0,0,1,.948-.9,14.688,14.688,0,0,1,1.85-.005.963.963,0,0,1,.987.93,1,1,0,0,1-.988,1,8.646,8.646,0,0,1-.955.006Z" transform="translate(-825.202 -620.754)" fill="#fff"/>
  <path id="Path_232" data-name="Path 232" d="M950.829,636.385a7.2,7.2,0,0,1-1.012-.009.931.931,0,0,1-.868-.976.867.867,0,0,1,.85-.914,12.761,12.761,0,0,1,2.025-.017.949.949,0,0,1,.911.944.961.961,0,0,1-.894.956,7.345,7.345,0,0,1-1.012.008Z" transform="translate(-921.016 -620.81)" fill="#fff"/>
  <path id="Path_233" data-name="Path 233" d="M866.644,699.349a.957.957,0,0,1,.931.9.983.983,0,0,1-1,.969.961.961,0,0,1-.932-.966A.974.974,0,0,1,866.644,699.349Z" transform="translate(-847.667 -677.963)" fill="#fff"/>
  <path id="Path_234" data-name="Path 234" d="M1051.939,709.029a2.987,2.987,0,0,1-3.021-3.141,3.074,3.074,0,0,1,6.146.16A2.989,2.989,0,0,1,1051.939,709.029Zm1.188-3.008a1.161,1.161,0,0,0-1.115-1.164A1.177,1.177,0,0,0,1050.87,706a1.129,1.129,0,1,0,2.257.026Z" transform="translate(-1009.037 -681.106)" fill="#fff"/>
  <path id="Path_235" data-name="Path 235" d="M788.626,709.092a3.018,3.018,0,0,1-3.066-3.048,3.07,3.07,0,0,1,3.093-3.054,3.038,3.038,0,0,1,3.052,3.147A2.956,2.956,0,0,1,788.626,709.092Zm1.117-3.045a1.082,1.082,0,0,0-1.113-1.127,1.141,1.141,0,0,0,.014,2.281A1.122,1.122,0,0,0,789.742,706.047Z" transform="translate(-777.156 -681.169)" fill="#fff"/>
</svg>
