<svg id="banking_icon" data-name="banking icon" xmlns="http://www.w3.org/2000/svg" width="46.862" height="46.869" viewBox="0 0 46.862 46.869">
  <path id="Path_217" data-name="Path 217" d="M805.751,508.887q-10.958,0-21.917,0a5.326,5.326,0,0,1-.873-.047.719.719,0,0,1-.6-.575.893.893,0,0,1,.333-.978c.619-.473,1.251-.929,1.882-1.386l20.054-14.527c.989-.717,1.232-.734,2.14-.076q10.8,7.818,21.591,15.643a3.017,3.017,0,0,1,.607.519.84.84,0,0,1-.576,1.41,6.162,6.162,0,0,1-.8.018Zm19.764-1.745a2.641,2.641,0,0,0-.247-.272Q815.776,500,806.29,493.119a.835.835,0,0,0-1.157.075q-9.338,6.772-18.682,13.537c-.134.1-.382.142-.316.411Z" transform="translate(-782.333 -490.818)" fill="#fff"/>
  <path id="Path_218" data-name="Path 218" d="M913.558,634.516c0,2.628.016,5.257-.011,7.885-.007.661.143.98.885.954.974-.035,1.428.294,1.435.873.007.6-.482.908-1.481.909q-4.052,0-8.1,0a4.344,4.344,0,0,1-.583-.02c-.515-.07-.886-.333-.893-.884-.006-.526.364-.759.84-.85.048-.009.1-.018.144-.024,1.315-.181,1.315-.181,1.315-1.536q0-7.557,0-15.114c0-.985,0-.987-1.009-1.032a1.728,1.728,0,0,1-.779-.159.83.83,0,0,1,.164-1.582,3.4,3.4,0,0,1,.725-.054q4.125,0,8.25,0a4.445,4.445,0,0,1,.583.023.851.851,0,0,1,.11,1.689,2.363,2.363,0,0,1-.575.081c-1.009.053-1.012.051-1.013,1.031Q913.556,630.61,913.558,634.516Zm-4.669,0v6.856c0,1.98,0,1.947,1.959,1.98.755.013.944-.252.94-.97-.026-4.911,0-9.822-.02-14.733-.009-2.287.372-1.922-2.026-1.984-.69-.018-.87.256-.864.9C908.9,629.219,908.889,631.869,908.889,634.519Z" transform="translate(-886.905 -604.435)" fill="#fff"/>
  <path id="Path_219" data-name="Path 219" d="M825.15,623.882c1.485,0,2.971-.011,4.456.006.533.006.982.209,1,.832s-.4.838-.935.92c-.048.007-.1.013-.145.019-1.17.128-1.171.128-1.171,1.332q0,7.67,0,15.341c0,.97.005.964.961,1.009a2.876,2.876,0,0,1,.715.114.758.758,0,0,1,.562.767.837.837,0,0,1-.529.8,1.914,1.914,0,0,1-.862.108q-4.091,0-8.182,0c-.122,0-.244,0-.365-.006-.559-.038-1.043-.226-1.07-.864-.027-.654.458-.855,1.012-.916,1.287-.143,1.287-.14,1.287-1.472q0-7.6,0-15.195c0-.968,0-.965-.948-1.01a3.033,3.033,0,0,1-.649-.086.847.847,0,0,1,.116-1.681,6.751,6.751,0,0,1,.875-.026q1.936,0,3.872,0Zm1.414,10.56c0-2.314.014-4.627,0-6.941-.017-2.089.322-1.8-1.8-1.825-1.062-.01-1.071.007-1.072,1.047,0,4.871-.014,9.741,0,14.612.009,2.337-.354,1.944,2.005,2.01.658.018.893-.18.885-.867C826.543,639.8,826.564,637.121,826.564,634.442Z" transform="translate(-814.139 -604.432)" fill="#fff"/>
  <path id="Path_220" data-name="Path 220" d="M995.841,623.873c1.412,0,2.825-.006,4.237,0,.779.005,1.215.322,1.224.854s-.428.875-1.183.934c-1.126.088-1.126.088-1.126,1.2q0,7.744,0,15.487c0,.957,0,.952.963.985a3.122,3.122,0,0,1,.719.1.783.783,0,0,1,.626.8.8.8,0,0,1-.62.807,2.783,2.783,0,0,1-.791.092q-4.127.009-8.255,0a2.626,2.626,0,0,1-.721-.074.81.81,0,0,1-.628-.8.779.779,0,0,1,.6-.815,1.425,1.425,0,0,1,.5-.091c1.352.086,1.137-.306,1.138-1.2q.007-7.707,0-15.414c0-1,0-1-.993-1.063a3.341,3.341,0,0,1-.505-.068.838.838,0,0,1-.752-.922.79.79,0,0,1,.822-.772c.63-.044,1.265-.027,1.9-.029C993.941,623.87,994.891,623.872,995.841,623.873Zm1.353,10.712c0-2.338.012-4.676,0-7.014-.014-2.174.293-1.879-1.9-1.9-.971-.009-.979.008-.979.973q0,7.379,0,14.758c0,1.94,0,1.94,1.919,1.927.945-.007.961-.019.962-1Q997.2,638.457,997.193,634.585Z" transform="translate(-959.885 -604.428)" fill="#fff"/>
  <path id="Path_221" data-name="Path 221" d="M805.784,801.576H783.808c-1.065,0-1.418-.2-1.435-.813-.018-.64.39-.9,1.452-.9h43.952c.146,0,.292,0,.438.005.578.031,1.016.244.99.907-.025.627-.456.8-1.007.8q-3.541,0-7.082,0Z" transform="translate(-782.366 -754.707)" fill="#fff"/>
  <path id="Path_222" data-name="Path 222" d="M819.341,780H799.763c-1.064,0-1.5-.241-1.526-.841-.03-.63.461-.954,1.521-.954q19.578-.005,39.156,0a3.544,3.544,0,0,1,.866.1.788.788,0,0,1,.656.847.807.807,0,0,1-.717.8,4.672,4.672,0,0,1-.873.043Q829.093,780,819.341,780Z" transform="translate(-795.912 -736.21)" fill="#fff"/>
  <path id="Path_223" data-name="Path 223" d="M927.1,524.472a2.511,2.511,0,0,1-1.581,2.4c-.459.17-.744.353-.764.9a.808.808,0,0,1-.841.839.829.829,0,0,1-.888-.871c-.029-.574-.324-.659-.807-.657-1.072,0-1.49-.253-1.506-.854s.419-.844,1.494-.848c.73,0,1.462.017,2.189-.033.406-.028.9-.126.883-.674s-.476-.669-.951-.677c-.438-.008-.88.016-1.313-.033a2.592,2.592,0,0,1-2.315-2.194,2.43,2.43,0,0,1,1.658-2.481c.412-.158.643-.342.666-.816a.819.819,0,0,1,.885-.868.829.829,0,0,1,.863.894c.023.544.315.646.765.614a5.041,5.041,0,0,1,.584,0c.569.026.95.3.942.889-.007.569-.405.8-.934.8-.779.01-1.558,0-2.337.01-.539.008-1.237-.006-1.26.676-.025.783.712.725,1.264.708,1.358-.042,2.532.239,3.12,1.639A4.708,4.708,0,0,1,927.1,524.472Z" transform="translate(-900.471 -513.687)" fill="#fff"/>
</svg>
