<svg id="chemical_icon" data-name="chemical icon" xmlns="http://www.w3.org/2000/svg" width="36.367" height="55.09" viewBox="0 0 36.367 55.09">
  <path id="Path_253" data-name="Path 253" d="M855.906,599.474c-4.566,0-9.132.014-13.7,0a4.519,4.519,0,0,1-4.1-6.267c.987-2.162,2.193-4.224,3.312-6.325q3.876-7.278,7.766-14.548a2.821,2.821,0,0,0,.343-1.381c-.006-1.872-.011-3.743.019-5.615a.925.925,0,0,0-.772-1.084,3.165,3.165,0,0,1-2.454-2.841A3.273,3.273,0,0,1,848,558.2a2.928,2.928,0,0,1,1.629-.4c4.282,0,8.565,0,12.847.014a3.15,3.15,0,0,1,3.059,2.684,3.2,3.2,0,0,1-1.887,3.464,1.683,1.683,0,0,0-1.344,2.027c.089,1.668.055,3.346,0,5.018a3.988,3.988,0,0,0,.752,2.039c3.436,6.454,6.9,12.893,10.33,19.349,1.476,2.778.56,5.615-2.123,6.771a4.524,4.524,0,0,1-1.831.3H855.906Zm.134-1.987v-.008c4.366,0,8.732.01,13.1,0,2.375-.008,3.57-1.93,2.476-4.011-2.175-4.137-4.386-8.255-6.583-12.381-1.052-1.975-2.123-3.94-3.151-5.928-.382-.739-.739-1.082-1.69-.759a40.18,40.18,0,0,1-10.162,1.87,1.155,1.155,0,0,0-1.024.745q-1.08,2.072-2.181,4.133c-2.22,4.146-4.46,8.282-6.661,12.438a2.512,2.512,0,0,0,1.855,3.8,7.781,7.781,0,0,0,1.353.1Q849.7,597.493,856.04,597.487Zm-.093-37.687v-.008c-1.956,0-3.913-.007-5.869,0-1.041.006-1.674.508-1.678,1.29,0,.766.555,1.172,1.621,1.194.651.013,1.3.025,1.952.073a.945.945,0,0,1,.96.906.93.93,0,0,1-.7,1.045c-.551.136-.615.469-.613.938.008,2.042-.006,4.083-.006,6.124a2.787,2.787,0,0,1-.279,1.313c-.226.441-.8.944-.545,1.333.285.433.944.009,1.432-.039a39.408,39.408,0,0,0,7.31-1.508.813.813,0,0,0,.7-.893c-.015-2.126-.018-4.253.011-6.379.008-.64-.246-.851-.858-.827-.906.034-1.814.012-2.721.017-.705,0-1.28-.244-1.32-1.011-.039-.751.529-1,1.184-1.054.282-.024.566-.021.85-.022,1.588-.005,3.176.013,4.763-.021a1.232,1.232,0,0,0,1.313-1.188c.068-.665-.4-1.133-1.219-1.247a6.212,6.212,0,0,0-.849-.036Q858.669,559.8,855.947,559.8Z" transform="translate(-837.724 -544.389)" fill="#fff"/>
  <path id="Path_254" data-name="Path 254" d="M949.744,483.544a4.4,4.4,0,0,1-4.354,4.33,4.426,4.426,0,1,1,.039-8.853A4.342,4.342,0,0,1,949.744,483.544Zm-6.667-.089a2.377,2.377,0,0,0,2.325,2.329,2.412,2.412,0,0,0,2.307-2.354,2.377,2.377,0,0,0-2.343-2.312A2.325,2.325,0,0,0,943.077,483.455Z" transform="translate(-923.392 -479.021)" fill="#fff"/>
  <path id="Path_255" data-name="Path 255" d="M902.757,518.889a2.684,2.684,0,0,1,2.694,2.774,2.76,2.76,0,0,1-2.668,2.741,2.723,2.723,0,0,1-2.858-2.8A2.648,2.648,0,0,1,902.757,518.889Z" transform="translate(-889.335 -512.101)" fill="#fff"/>
  <path id="Path_256" data-name="Path 256" d="M887.453,744.885a2.809,2.809,0,0,1-2.923-2.791,2.859,2.859,0,0,1,5.717-.048A2.816,2.816,0,0,1,887.453,744.885Zm-1.078-2.824c.087.6.4,1.013,1.037,1a.9.9,0,0,0,.955-.969.936.936,0,0,0-.95-1.069C886.783,741,886.491,741.46,886.375,742.061Z" transform="translate(-876.561 -694.935)" fill="#fff"/>
  <path id="Path_257" data-name="Path 257" d="M951.78,676.874a2.35,2.35,0,0,1,2.511,2.325,2.522,2.522,0,0,1-2.461,2.52,2.39,2.39,0,0,1-2.419-2.433A2.252,2.252,0,0,1,951.78,676.874Z" transform="translate(-930.395 -643.188)" fill="#fff"/>
  <path id="Path_258" data-name="Path 258" d="M980.491,757.392a2.192,2.192,0,0,1-2.26,2.248,2.24,2.24,0,1,1,2.26-2.248Z" transform="translate(-952.471 -708.146)" fill="#fff"/>
  <path id="Path_259" data-name="Path 259" d="M915.56,702.521a1.158,1.158,0,0,1-1.133,1.23,1.118,1.118,0,0,1-1.148-1.121,1.253,1.253,0,0,1,1.147-1.251A1.15,1.15,0,0,1,915.56,702.521Z" transform="translate(-900.415 -663.521)" fill="#fff"/>
  <path id="Path_260" data-name="Path 260" d="M951.857,736.96c.073-.6.33-1.037,1-1.035a1.008,1.008,0,0,1,1.1.962,1.05,1.05,0,0,1-1.044,1.106A1.066,1.066,0,0,1,951.857,736.96Z" transform="translate(-932.425 -692.186)" fill="#fff"/>
  <path id="Path_261" data-name="Path 261" d="M933.407,615.409a2.341,2.341,0,0,1-2.189-2.279,2.225,2.225,0,0,1,2.222-2.2,2.306,2.306,0,0,1,2.346,2.2A2.375,2.375,0,0,1,933.407,615.409Z" transform="translate(-915.3 -588.47)" fill="#fff"/>
</svg>
