<svg id="education_icon" data-name="education icon" xmlns="http://www.w3.org/2000/svg" width="51.667" height="38.678" viewBox="0 0 51.667 38.678">
  <path id="Path_202" data-name="Path 202" d="M893.142,867.667c-3.55.68-3.575.709-3.576,3.81,0,2.534-.039,5.068.01,7.6a5.262,5.262,0,0,1-2.855,5.007q-14.5,8.482-28.919-.085a4.976,4.976,0,0,1-2.7-4.7c.063-3.026-.036-6.057.04-9.083a1.739,1.739,0,0,0-1.416-1.98,51.553,51.553,0,0,1-5.484-2.19,2.89,2.89,0,0,1-1.49-1.595c-.09-.342.779-1.179,1.369-1.421q11.634-4.759,23.331-9.365a3.191,3.191,0,0,1,2.1.164c7.343,2.876,14.665,5.8,21.991,8.724.458.182.911.382,1.35.606,1.4.714,1.531,1.867.162,2.573a1.886,1.886,0,0,0-1.165,2c.045,3.893-.027,7.787.063,11.678.015.657.6,1.308.945,1.947.458.845,1.269,1.644,1.35,2.517a43.787,43.787,0,0,1,.058,6.841,2.153,2.153,0,0,1-1.5,1.4,34.028,34.028,0,0,1-4.623.066c-1.161-.009-1.663-.681-1.669-1.773a47.05,47.05,0,0,1,.071-5.923,10.829,10.829,0,0,1,1.443-3.083c.37-.751,1.042-1.492,1.064-2.253C893.2,875.337,893.142,871.522,893.142,867.667Zm-.208-3.177c-5.485-2.189-10.638-3.947-15.51-6.289a10.91,10.91,0,0,0-10.251.022c-4.878,2.3-10,4.092-15.19,6.173a6.97,6.97,0,0,0,.961.624c6.005,2.4,11.993,4.851,18.046,7.127a5.349,5.349,0,0,0,3.288-.19c2.331-.781,4.578-1.809,6.863-2.729C884.9,867.711,888.669,866.2,892.933,864.49Zm-35.111,5.43c0,3.466-.068,6.545.054,9.617a2.886,2.886,0,0,0,1.153,1.919,23.976,23.976,0,0,0,26.484.084,2.7,2.7,0,0,0,1.19-1.7c.117-3.185.055-6.376.055-9.73a15.6,15.6,0,0,0-1.6.436c-3.594,1.442-7.139,3.019-10.791,4.292a8.929,8.929,0,0,1-4.054.041,13.961,13.961,0,0,1-2.9-1.159C864.344,872.5,861.27,871.286,857.822,869.92Zm37.8,19.488c0-1.75.079-3.294-.049-4.82-.038-.454-.659-.859-1.012-1.287-.408.374-1.134.722-1.167,1.127-.135,1.631-.056,3.28-.056,4.979Z" transform="translate(-846.748 -853.55)" fill="#fff"/>
</svg>
