<svg id="engineering_icon" data-name="engineering icon" xmlns="http://www.w3.org/2000/svg" width="48.627" height="48.274" viewBox="0 0 48.627 48.274">
  <path id="Path_213" data-name="Path 213" d="M855.056,455.216a3.94,3.94,0,0,1-1.859-.522.7.7,0,0,0-.991.248A12.364,12.364,0,0,1,850,457.137a.717.717,0,0,0-.277,1.031,4.2,4.2,0,0,1,.533,1.917,2.716,2.716,0,0,1-1.95,2.523q-1.084.44-2.181.848a2.537,2.537,0,0,1-3.132-1.113,12.484,12.484,0,0,1-1.054-2.513,1.029,1.029,0,0,1,.552-1.4,1.057,1.057,0,0,1,1.4.658c.3.636.552,1.3.818,1.95.188.461.492.549.937.353.663-.291,1.338-.555,2.006-.833a.639.639,0,0,0,.368-.985c-.273-.61-.508-1.236-.761-1.855a1.076,1.076,0,0,1,.31-1.356c.358-.294.736-.565,1.1-.853a14.573,14.573,0,0,0,2.591-2.825,1.079,1.079,0,0,1,1.538-.441c.639.253,1.276.512,1.906.786a.576.576,0,0,0,.862-.329c.3-.7.568-1.412.856-2.116a.649.649,0,0,0-.4-.942c-.563-.242-1.137-.459-1.7-.7a1.221,1.221,0,0,1-.888-1.615,16.77,16.77,0,0,0,.189-3.165,10.689,10.689,0,0,0-.2-1.433c-.158-.992.038-1.347.958-1.739q.82-.35,1.647-.683a.619.619,0,0,0,.4-.928c-.267-.633-.511-1.277-.784-1.907-.257-.592-.505-.693-1.1-.458-.569.227-1.13.476-1.7.712a1.154,1.154,0,0,1-1.568-.413,14.084,14.084,0,0,0-3.656-3.628,1.124,1.124,0,0,1-.35-1.491q.378-.9.77-1.791c.185-.424.129-.77-.324-.969-.662-.29-1.325-.582-2-.843-.626-.242-.77-.169-1.032.431-.252.579-.482,1.168-.747,1.741a1.2,1.2,0,0,1-1.558.812,12.7,12.7,0,0,0-4.762.009,1.138,1.138,0,0,1-1.47-.769q-.422-.91-.791-1.844a.634.634,0,0,0-.965-.408c-.682.294-1.372.569-2.054.864a.6.6,0,0,0-.347.866c.248.6.5,1.2.753,1.8a1.115,1.115,0,0,1-.392,1.6,15.31,15.31,0,0,0-3.5,3.481c-.543.765-.957.814-1.833.429-.527-.232-1.065-.44-1.6-.644a.683.683,0,0,0-.992.417c-.285.725-.577,1.448-.845,2.179-.128.348.065.538.376.692a15.9,15.9,0,0,1,2.278,1.038,1,1,0,0,1-.158,1.769.977.977,0,0,1-.762.042,14.059,14.059,0,0,1-2.856-1.236,2.526,2.526,0,0,1-.924-2.97c.332-.887.691-1.765,1.085-2.626a2.552,2.552,0,0,1,3.151-1.423,11.177,11.177,0,0,1,1.3.488.45.45,0,0,0,.625-.128,14.6,14.6,0,0,1,2.6-2.588.405.405,0,0,0,.118-.581,7.626,7.626,0,0,1-.493-1.241,2.673,2.673,0,0,1,1.723-3.38,21.012,21.012,0,0,0,1.949-.825,2.73,2.73,0,0,1,3.79,1.72c.055.177.142.344.194.522.143.485.443.591.934.518a10.3,10.3,0,0,1,3.054,0c.459.069.74-.035.9-.5a5.267,5.267,0,0,1,.677-1.46,2.575,2.575,0,0,1,2.916-.94c.94.346,1.869.729,2.778,1.151a2.647,2.647,0,0,1,1.314,3.116,3.9,3.9,0,0,1-.34.939c-.349.534-.244.874.263,1.239a10.119,10.119,0,0,1,2.039,2.048c.315.405.611.568,1.112.295a5.1,5.1,0,0,1,1.2-.432,2.52,2.52,0,0,1,2.955,1.42c.363.794.695,1.6,1.02,2.412a2.578,2.578,0,0,1-1.321,3.507,11.625,11.625,0,0,1-1.132.468.467.467,0,0,0-.341.6,11.788,11.788,0,0,1,.008,3.439.54.54,0,0,0,.375.685c.294.113.576.256.869.374a2.667,2.667,0,0,1,1.517,3.7c-.321.731-.617,1.474-.926,2.21A2.55,2.55,0,0,1,855.056,455.216Z" transform="translate(-810.031 -426.304)" fill="#fff"/>
  <path id="Path_214" data-name="Path 214" d="M722.586,622.485a1.973,1.973,0,0,1,.711-1.578.807.807,0,0,0,.234-1.224,5.438,5.438,0,0,1-.617-1.428.751.751,0,0,0-.863-.6,2.436,2.436,0,0,1-1.142-.194,2.187,2.187,0,0,1-1.276-2.06c-.018-.464-.018-.929-.018-1.393a2.275,2.275,0,0,1,2.544-2.6c.461,0,.643-.122.764-.567a5.97,5.97,0,0,1,.647-1.535.663.663,0,0,0-.159-.991,2.242,2.242,0,0,1-.694-2.522,1.436,1.436,0,0,1,.331-.574c.495-.5.969-1.027,1.487-1.5a2.057,2.057,0,0,1,3.118.059c.439.443.792.559,1.33.208a3.2,3.2,0,0,1,1.078-.439c.639-.133.921-.442.828-1.114a1.922,1.922,0,0,1,.458-1.393,2.126,2.126,0,0,1,1.766-.9,11.529,11.529,0,0,1,2.39.086,2.063,2.063,0,0,1,1.622,1.825,3.177,3.177,0,0,1,.021.667.582.582,0,0,0,.523.711,8.233,8.233,0,0,1,1.754.706.512.512,0,0,0,.687-.106c.075-.083.153-.163.232-.241a2.206,2.206,0,0,1,3.275-.026q.583.559,1.142,1.144a2.136,2.136,0,0,1,.051,3.259.959.959,0,0,0-.19,1.394,4.317,4.317,0,0,1,.549,1.4.538.538,0,0,0,.544.45c2.287.26,2.694.725,2.7,3.04,0,.316.007.632,0,.948a2.077,2.077,0,0,1-1.992,2.251c-.929.049-1.236.486-1.561,1.272-.388.938-.6,1.609.27,2.461.726.71.51,1.776-.256,2.684a10.007,10.007,0,0,1-1.512,1.478,2.147,2.147,0,0,1-2.891-.139c-.655-.61-.651-.6-1.48-.222a12.861,12.861,0,0,1-1.4.557.558.558,0,0,0-.451.594c-.082,1.967-.839,2.688-2.806,2.68a11.882,11.882,0,0,1-1.389-.078,2.128,2.128,0,0,1-2.043-2.225.97.97,0,0,0-.8-1.111,6.37,6.37,0,0,1-1.371-.612.577.577,0,0,0-.856.156,2.023,2.023,0,0,1-2.274.807,5.179,5.179,0,0,1-2.943-2.859A1.994,1.994,0,0,1,722.586,622.485Zm10.425-19.19c0,.319.014.543,0,.764a1.049,1.049,0,0,1-.841,1.044,12.141,12.141,0,0,0-3.491,1.431,1,1,0,0,1-1.323-.162c-.332-.325-.664-.65-.986-.985a.338.338,0,0,0-.566-.011c-.3.307-.6.613-.907.906a.359.359,0,0,0,0,.608c.323.307.644.617.944.946a1.021,1.021,0,0,1,.146,1.418,10.689,10.689,0,0,0-1.337,3.227,1.22,1.22,0,0,1-1.274,1.032c-.389.02-.78.005-1.171.008-.192,0-.41.016-.428.256a3.035,3.035,0,0,0,.079,1.644c.21.395.751.14,1.143.19a3.719,3.719,0,0,0,.39,0c.734.016,1.03.194,1.2.909a13.489,13.489,0,0,0,1.366,3.279c.4.737.343,1.017-.256,1.624-1.143,1.158-1.135,1.15.054,2.272.273.257.451.239.688-.017.3-.327.622-.639.948-.944a.99.99,0,0,1,1.28-.175,12.3,12.3,0,0,0,3.465,1.49,1.1,1.1,0,0,1,.873,1.2c.012.39.008.78.015,1.171,0,.169.006.38.209.409a3.135,3.135,0,0,0,1.7-.039c.388-.176.113-.712.168-1.084a2.527,2.527,0,0,0,0-.334c.013-.894.234-1.2,1.107-1.414a9.554,9.554,0,0,0,3.159-1.347,1,1,0,0,1,1.33.1,7.291,7.291,0,0,1,.825.829c.358.448.623.407,1.016,0,1.238-1.275.942-.972-.04-1.973-.659-.672-.76-1.066-.287-1.864a10.308,10.308,0,0,0,1.278-3.19,1.091,1.091,0,0,1,1.117-.9c.408-.015.818-.012,1.226,0,.366.013.562-.113.542-.511-.018-.371-.017-.743-.008-1.115.008-.33-.138-.473-.467-.468-.427.007-.856.012-1.282-.016a1.066,1.066,0,0,1-1.1-.787,11.7,11.7,0,0,0-1.43-3.487,1.071,1.071,0,0,1,.212-1.42c.146-.143.289-.289.433-.434.773-.775.773-.775.015-1.536-.727-.73-.727-.73-1.434-.026-.119.118-.237.236-.358.351-.664.626-.947.683-1.73.253a11.747,11.747,0,0,0-3.242-1.307,1.07,1.07,0,0,1-.865-1.088,9.639,9.639,0,0,1-.015-1.226c.019-.418-.165-.578-.564-.544-.129.011-.26,0-.39,0C732.994,602.278,732.989,602.04,733.011,603.295Z" transform="translate(-719.616 -580.735)" fill="#fff"/>
  <path id="Path_215" data-name="Path 215" d="M932.571,529.39a8.085,8.085,0,0,1-7.724,8.16,1.181,1.181,0,0,1-1.33-.989,1.07,1.07,0,0,1,1.093-1.148,6.059,6.059,0,0,0,4.013-1.681,5.908,5.908,0,1,0-10-4.57,3.455,3.455,0,0,1-.043.5,1.02,1.02,0,0,1-1.14.9,1.039,1.039,0,0,1-.961-1.045,7.675,7.675,0,0,1,1.581-4.828,7.976,7.976,0,0,1,6.365-3.265,7.821,7.821,0,0,1,4.753,1.5A8.1,8.1,0,0,1,932.571,529.39Z" transform="translate(-894.528 -510.814)" fill="#fff"/>
  <path id="Path_216" data-name="Path 216" d="M802.172,677.052a5.88,5.88,0,0,1,5.948,6.041,5.875,5.875,0,0,1-11.746-.046A5.863,5.863,0,0,1,802.172,677.052Zm3.819,5.9a3.817,3.817,0,0,0-3.747-3.837,3.806,3.806,0,0,0-.045,7.611A3.761,3.761,0,0,0,805.991,682.951Z" transform="translate(-787.813 -649.088)" fill="#fff"/>
</svg>
