<svg xmlns="http://www.w3.org/2000/svg" width="45.5" height="45.6" viewBox="0 0 45.5 45.6">
  <g id="evaluator.125703be" transform="translate(-0.2 -0.2)">
    <path id="Layer" d="M45.2,44a1.613,1.613,0,0,1-.3.9,1.567,1.567,0,0,1-.4.3,1.3,1.3,0,0,1-1,0,1.567,1.567,0,0,1-.4-.3L31,32.7q-.6.5-1.1.9a.288.288,0,0,1-.2.1v.1a18.537,18.537,0,0,1-21.4,0v-.1a.288.288,0,0,1-.2-.1A18.2,18.2,0,1,1,32.7,31L44.9,43.1a1.613,1.613,0,0,1,.3.9ZM27.7,32.1V31A4.781,4.781,0,0,0,23,26.2H15A4.867,4.867,0,0,0,10.2,31v1.1A15.926,15.926,0,0,0,19,34.7a15.364,15.364,0,0,0,8.7-2.6ZM3.2,19A15.994,15.994,0,0,0,7.8,30.1,7.325,7.325,0,0,1,15,23.7h8a7.325,7.325,0,0,1,7.2,6.4V30a15.489,15.489,0,0,0,4.5-11A15.75,15.75,0,1,0,3.2,19Z" fill="#6784b9" stroke="#6784b9" stroke-width="1" fill-rule="evenodd"/>
    <path id="Layer-2" data-name="Layer" d="M12.8,16A6.252,6.252,0,0,1,19,9.7a6.3,6.3,0,0,1,0,12.6A6.4,6.4,0,0,1,12.7,16Zm2.5,0a3.8,3.8,0,0,0,3.8,3.8A3.714,3.714,0,0,0,22.8,16a3.714,3.714,0,0,0-3.7-3.8A3.8,3.8,0,0,0,15.3,16Z" fill="#6784b9" stroke="#6784b9" stroke-width="1" fill-rule="evenodd"/>
  </g>
</svg>
