<svg xmlns="http://www.w3.org/2000/svg" width="14.208" height="14.208" viewBox="0 0 14.208 14.208">
  <g id="Group_1414" data-name="Group 1414" transform="translate(-922.5 -270.5)">
    <path id="Path_5173" data-name="Path 5173" d="M936.1,279.055a.605.605,0,0,0-.605.605v2.372a1.467,1.467,0,0,1-1.465,1.465h-8.856a1.467,1.467,0,0,1-1.465-1.465v-8.856a1.467,1.467,0,0,1,1.465-1.465h2.8a.605.605,0,1,0,0-1.211h-2.8a2.679,2.679,0,0,0-2.676,2.676v8.856a2.679,2.679,0,0,0,2.676,2.676h8.856a2.679,2.679,0,0,0,2.676-2.676V279.66A.605.605,0,0,0,936.1,279.055Z" fill="#14bc9a"/>
    <path id="Path_5174" data-name="Path 5174" d="M1019.514,270.5h-4.428a.605.605,0,1,0,0,1.211h3.986l-6.321,6.321a.605.605,0,0,0,.856.856l6.225-6.225v3.875a.605.605,0,1,0,1.211,0v-4.508A1.531,1.531,0,0,0,1019.514,270.5Z" transform="translate(-84.336)" fill="#14bc9a"/>
  </g>
</svg>
