<svg id="finance_icon" data-name="finance icon" xmlns="http://www.w3.org/2000/svg" width="45.871" height="45.903" viewBox="0 0 45.871 45.903">
  <path id="Path_224" data-name="Path 224" d="M954.916,573.035q0,8.22,0,16.44c0,1.22-.124,1.343-1.356,1.343H934.4c-1.2,0-1.414-.212-1.426-1.408,0-.286-.007-.572,0-.858a11.685,11.685,0,0,0-.913-5.241,11.026,11.026,0,0,1,.549-9.986,3,3,0,0,0,.369-1.495c-.017-1.906-.01-3.812,0-5.718,0-1.247.283-1.529,1.5-1.53q3.538,0,7.076,0c1.121,0,1.391.281,1.436,1.383.014.365-.185.875.205,1.056a2.776,2.776,0,0,0,1.617.079c.371-.064.26-.461.26-.729q.01-4.861,0-9.721c0-1.359.135-1.5,1.52-1.5q3.467-.006,6.933,0c1.169,0,1.382.222,1.383,1.369Q954.917,564.779,954.916,573.035Zm-11.873-4.374a10.249,10.249,0,0,0-10.24,10.344,10.262,10.262,0,0,0,20.523-.043A10.244,10.244,0,0,0,943.042,568.661Zm10.22,4.174c.064-.072.091-.089.091-.105q.013-7.715.026-15.431c0-.422-.218-.521-.585-.519q-2.786.01-5.573,0c-.422,0-.6.17-.6.6q.01,4.859,0,9.717a.646.646,0,0,0,.48.692A12.02,12.02,0,0,1,953.262,572.835Zm-18.65-2.346c.748-.564,1.35-1.067,2-1.5a11.21,11.21,0,0,1,4.135-1.685.557.557,0,0,0,.522-.638c-.015-.338-.21-.448-.515-.448q-2.819,0-5.638,0c-.308,0-.5.108-.5.45C934.613,567.9,934.612,569.131,934.612,570.489Zm18.759,14.446a14.118,14.118,0,0,1-1.918,2.456,17.421,17.421,0,0,1-2.374,1.887c1.391,0,2.6,0,3.81,0,.271,0,.479-.081.48-.393C953.374,587.638,953.371,586.389,953.371,584.935Zm-16.489,4.341c-.793-.547-1.414-1.254-2.273-1.83,0,.532,0,.933,0,1.334,0,.31.112.5.453.5C935.668,589.273,936.275,589.276,936.883,589.276Z" transform="translate(-909.045 -544.917)" fill="#fff"/>
  <path id="Path_225" data-name="Path 225" d="M832.291,486.756a3.061,3.061,0,0,1-1.724,2.987,2.938,2.938,0,0,1-3.418-.291,1.24,1.24,0,0,0-1.538-.124c-1.756.854-3.537,1.658-5.315,2.468a.775.775,0,0,0-.558.839,3.231,3.231,0,0,1-4.445,3.034.721.721,0,0,0-.883.175q-3.028,2.987-6.081,5.948a.774.774,0,0,0-.221.939,3.249,3.249,0,0,1-2.135,4.263,3.194,3.194,0,0,1-4.1-2.6,1.59,1.59,0,0,0-1.223-1.418c-1.3-.461-2.583-.983-3.85-1.532a1.262,1.262,0,0,0-1.533.2,3.143,3.143,0,0,1-3.855.11,3.218,3.218,0,0,1-1.224-3.666,3.3,3.3,0,0,1,3.217-2.267,3.213,3.213,0,0,1,3.1,3.053.917.917,0,0,0,.68,1c1.561.585,3.106,1.215,4.649,1.846a.765.765,0,0,0,.943-.175,3.086,3.086,0,0,1,3.427-.726.88.88,0,0,0,1.072-.263q2.9-2.865,5.826-5.7a.994.994,0,0,0,.313-1.184,3.239,3.239,0,0,1,5.148-3.526.924.924,0,0,0,1.147.143c1.742-.828,3.493-1.642,5.258-2.421a1.218,1.218,0,0,0,.854-1.218,3.234,3.234,0,0,1,2.418-2.947,3.285,3.285,0,0,1,3.6,1.443A2.682,2.682,0,0,1,832.291,486.756ZM803.48,503.88a1.566,1.566,0,0,0,1.608,1.619,1.7,1.7,0,0,0,1.626-1.657,1.584,1.584,0,0,0-1.664-1.568A1.45,1.45,0,0,0,803.48,503.88Zm-8.593-4.771a1.569,1.569,0,0,0-1.6-1.643,1.622,1.622,0,0,0-1.627,1.637,1.585,1.585,0,0,0,1.584,1.592A1.538,1.538,0,0,0,794.887,499.109Zm20.032-6.478a1.478,1.478,0,0,0,1.581,1.619,1.626,1.626,0,0,0,1.652-1.548,1.685,1.685,0,0,0-1.607-1.679A1.551,1.551,0,0,0,814.919,492.631Zm15.74-5.786a1.6,1.6,0,0,0-1.616-1.642,1.721,1.721,0,0,0-1.608,1.7,1.674,1.674,0,0,0,1.628,1.586A1.555,1.555,0,0,0,830.659,486.845Z" transform="translate(-788.129 -483.599)" fill="#fff"/>
  <path id="Path_226" data-name="Path 226" d="M776.773,668.486q0-4.646,0-9.293c0-1.034.214-1.25,1.262-1.253q3.681-.009,7.362,0c1,0,1.209.227,1.21,1.229q0,9.257,0,18.513c0,1.055-.159,1.218-1.187,1.22q-3.753.006-7.505,0c-.948,0-1.14-.19-1.141-1.125Q776.767,673.132,776.773,668.486Zm8.291-.074c0-2.692-.01-5.385.009-8.076,0-.534-.131-.776-.718-.767-1.786.029-3.574.025-5.36,0-.538-.007-.694.2-.693.717q.02,8.184,0,16.367c0,.581.211.731.754.722,1.739-.026,3.479-.035,5.217,0,.64.014.812-.2.805-.822C785.048,673.844,785.064,671.128,785.064,668.412Z" transform="translate(-776.772 -633.004)" fill="#fff"/>
  <path id="Path_227" data-name="Path 227" d="M870.187,699.261c0,2.216,0,4.432,0,6.647,0,1.209-.221,1.425-1.407,1.426q-3.681,0-7.362,0c-.967,0-1.233-.247-1.235-1.23q-.015-6.826,0-13.652c0-1.052.317-1.336,1.4-1.338q3.574-.008,7.148,0c1.148,0,1.454.295,1.459,1.43C870.193,694.782,870.187,697.021,870.187,699.261Zm-8.3,0c0,1.9.016,3.808-.01,5.711-.008.6.153.855.8.841,1.713-.037,3.427-.03,5.14,0,.55.009.753-.155.75-.728q-.029-5.782,0-11.565c0-.6-.207-.788-.791-.779-1.689.027-3.379.031-5.068,0-.615-.012-.844.181-.834.813C861.9,695.449,861.883,697.353,861.883,699.257Z" transform="translate(-848.246 -661.433)" fill="#fff"/>
  <path id="Path_228" data-name="Path 228" d="M994.5,674.225a1.549,1.549,0,0,0-1.26-1.743c-.655-.216-1.331-.366-1.991-.565a3.135,3.135,0,0,1-2.483-2.8,3.542,3.542,0,0,1,1.93-3.88c.648-.324,1.025-.643.959-1.424a.721.721,0,0,1,.815-.795.711.711,0,0,1,.757.781c-.078.819.34,1.143,1.01,1.466a3.311,3.311,0,0,1,1.892,2.91c.041.519-.066,1.007-.671,1.077-.639.075-.848-.4-.948-.934a2.07,2.07,0,0,0-2.794-1.793,2,2,0,0,0-1.335,2.062,1.575,1.575,0,0,0,1.327,1.768c.633.2,1.286.349,1.924.541a3.128,3.128,0,0,1,2.482,2.8,3.567,3.567,0,0,1-1.99,3.916c-.617.29-.943.6-.888,1.317a.748.748,0,0,1-.825.865.733.733,0,0,1-.764-.851c.086-.775-.323-1.061-.942-1.358a3.357,3.357,0,0,1-1.953-2.948c-.041-.519.066-1.006.671-1.077.639-.075.848.4.948.933a2.06,2.06,0,0,0,2.725,1.812A1.99,1.99,0,0,0,994.5,674.225Z" transform="translate(-958.418 -637.356)" fill="#fff"/>
</svg>
