<svg id="healthcare_icon" data-name="healthcare icon" xmlns="http://www.w3.org/2000/svg" width="45.592" height="45.521" viewBox="0 0 45.592 45.521">
  <path id="Path_209" data-name="Path 209" d="M968.8,578.64q0,2.618,0,5.237a6.189,6.189,0,0,1-1.861,4.621c-1.617,1.587-3.184,3.225-4.818,4.794a4.989,4.989,0,0,0-1.72,4.022c.041.808.014,1.62,0,2.429-.009.626-.321.991-.823,1-.522.013-.865-.365-.851-1.021a27.791,27.791,0,0,1,.1-4.041,5.525,5.525,0,0,1,1.575-3.016c1.684-1.7,3.361-3.406,5.08-5.069a4.968,4.968,0,0,0,1.584-3.808c-.029-3.581-.005-7.163-.013-10.744a1.314,1.314,0,0,0-1.81-1.393,1.3,1.3,0,0,0-.826,1.227c-.2,2.346-.368,4.7-.583,7.042a2.465,2.465,0,0,0,.414,1.747,2.9,2.9,0,0,1-.437,3.71q-2.813,2.835-5.648,5.648a.847.847,0,1,1-1.2-1.176q2.7-2.721,5.418-5.425a1.655,1.655,0,0,0,.579-1.005,1.328,1.328,0,0,0-2.238-1.183c-1.12,1.093-2.23,2.2-3.315,3.324a2.024,2.024,0,0,1-1.479.643,7.328,7.328,0,0,0-6.885,6.448c-.224,2.116-.046,4.243-.094,6.365-.006.288.011.577-.009.864a.867.867,0,0,1-.8.866.88.88,0,0,1-.894-.774,3.243,3.243,0,0,1-.04-.591c0-1.89-.007-3.779,0-5.669a9.292,9.292,0,0,1,8.472-9.243,1.284,1.284,0,0,0,.832-.435c.967-.967,1.946-1.923,2.9-2.9a3,3,0,0,1,2.2-.985c.386,0,.5-.186.523-.52q.19-2.366.392-4.731c.068-.806.124-1.614.217-2.418a2.96,2.96,0,0,1,2.838-2.62,2.994,2.994,0,0,1,3.128,2.419,7.762,7.762,0,0,1,.095,1.559Q968.8,576.238,968.8,578.64Z" transform="translate(-923.206 -555.229)" fill="#fff"/>
  <path id="Path_210" data-name="Path 210" d="M726.83,578.518c0,1.728.018,3.456-.006,5.183a4.784,4.784,0,0,0,1.526,3.667c1.7,1.655,3.368,3.346,5.04,5.031a5.787,5.787,0,0,1,1.772,4.319c-.015.954,0,1.908-.006,2.862-.007.622-.326.991-.827.995s-.825-.365-.85-.98a34.117,34.117,0,0,0-.089-3.719,3.579,3.579,0,0,0-.961-2.016c-1.18-1.21-2.385-2.4-3.574-3.6-.772-.78-1.556-1.549-2.3-2.359a5.737,5.737,0,0,1-1.469-3.96c-.022-3.689-.014-7.379,0-11.069a3.113,3.113,0,0,1,2.229-3.1,3.031,3.031,0,0,1,3.421,1.337,4.251,4.251,0,0,1,.5,2.075c.173,1.952.316,3.907.471,5.861.066.832.069.818.868.93a2.969,2.969,0,0,1,1.768.846c1,1.013,2.013,2.008,3.013,3.019a1.488,1.488,0,0,0,.989.461,9.213,9.213,0,0,1,8.255,8.353c.182,2.264.049,4.533.069,6.8a1.558,1.558,0,0,1-.11.579.794.794,0,0,1-.853.527.756.756,0,0,1-.722-.624,2.946,2.946,0,0,1-.044-.643c0-1.89,0-3.779,0-5.669a7.472,7.472,0,0,0-5.995-7.5,1.322,1.322,0,0,0-.423-.073,2.917,2.917,0,0,1-2.6-1.225c-.822-.9-1.745-1.717-2.569-2.619a1.386,1.386,0,1,0-1.9,1.98q2.61,2.621,5.23,5.231c.631.631.725,1.108.3,1.519s-.86.305-1.506-.344c-1.7-1.709-3.4-3.417-5.122-5.106a3.079,3.079,0,0,1-.412-4.476.887.887,0,0,0,.157-.652q-.312-3.681-.6-7.365a1.574,1.574,0,0,0-.641-1.408,1.3,1.3,0,0,0-2.02,1.148c-.021,1.926-.006,3.852-.006,5.777Z" transform="translate(-725.079 -555.053)" fill="#fff"/>
  <path id="Path_211" data-name="Path 211" d="M812.145,447.905A13.391,13.391,0,1,1,825.507,461.2,13.371,13.371,0,0,1,812.145,447.905Zm13.366,11.555a11.652,11.652,0,1,0-11.625-11.7A11.6,11.6,0,0,0,825.511,459.46Z" transform="translate(-802.741 -434.44)" fill="#fff"/>
  <path id="Path_212" data-name="Path 212" d="M877.146,506.378c-.558,0-1.116,0-1.674,0-1,0-1.259-.262-1.262-1.239,0-.81-.015-1.621.005-2.43.01-.4-.137-.543-.534-.534-.846.02-1.692.01-2.538,0-.776-.006-1.113-.3-1.125-1.058q-.03-1.89,0-3.78c.011-.734.339-1.032,1.082-1.039.774-.008,1.548,0,2.322,0s.786,0,.787-.812c0-.774-.007-1.548,0-2.322.009-.7.312-1.036,1.019-1.049q1.916-.036,3.834,0c.706.013,1.01.351,1.018,1.05.01.81.031,1.621-.007,2.43-.025.532.126.746.691.715.808-.045,1.62-.017,2.43-.009.741.008,1.069.306,1.081,1.042q.03,1.89,0,3.78c-.012.737-.345,1.047-1.072,1.055-.864.009-1.729.017-2.592,0-.4-.009-.542.14-.532.536.02.828.009,1.656,0,2.484,0,.885-.287,1.174-1.157,1.182C878.334,506.383,877.74,506.378,877.146,506.378Zm3.61-8.344v-.019c-.377,0-.755.009-1.132,0-1.005-.027-1.263-.285-1.278-1.3-.012-.791-.01-1.583,0-2.374,0-.337-.13-.5-.479-.489-.449.012-.9.019-1.348,0-.42-.021-.579.149-.57.567.017.827.023,1.655-.007,2.481-.029.808-.329,1.093-1.134,1.116-.845.023-1.69.036-2.535.015-.367-.009-.537.082-.521.471.019.467.018.936,0,1.4-.015.4.164.542.549.535.773-.014,1.547-.008,2.32,0,.99.008,1.317.334,1.331,1.338.011.773.013,1.547,0,2.32-.007.386.139.565.537.549.431-.017.864-.02,1.294,0s.575-.168.566-.578c-.016-.755-.01-1.511,0-2.266.012-1.037.333-1.358,1.358-1.365.773-.005,1.547-.01,2.32,0,.361,0,.531-.134.52-.508-.014-.485-.015-.971,0-1.457.011-.363-.15-.464-.494-.442C881.62,498.056,881.187,498.034,880.755,498.034Z" transform="translate(-854.348 -485.87)" fill="#fff"/>
</svg>
