<svg xmlns="http://www.w3.org/2000/svg" width="32.385" height="22.672" viewBox="0 0 32.385 22.672">
  <g id="hide_icon" data-name="hide icon" transform="translate(-471.564 -288.317)">
    <g id="Group_1" data-name="Group 1" transform="translate(471.564 290.045)">
      <path id="Path_1" data-name="Path 1" d="M479.4,308.533a19.894,19.894,0,0,1-5.326-4.71.723.723,0,0,1,0-.9c3.605-4.517,8.5-7.068,13.686-7.068a15.794,15.794,0,0,1,3.841.475l1.688-1.688a17.9,17.9,0,0,0-5.529-.877c-6.289,0-11.938,3.292-15.834,8.522a1.822,1.822,0,0,0,0,2.17,22.487,22.487,0,0,0,5.956,5.592Z" transform="translate(-471.564 -293.766)"/>
      <path id="Path_2" data-name="Path 2" d="M526.545,308.6A22.482,22.482,0,0,0,520.589,303l-1.518,1.517a19.894,19.894,0,0,1,5.326,4.711.724.724,0,0,1,0,.9c-3.605,4.516-8.5,7.068-13.687,7.068a15.774,15.774,0,0,1-3.841-.476l-1.688,1.688a17.889,17.889,0,0,0,5.529.877c6.289,0,11.938-3.292,15.834-8.522A1.822,1.822,0,0,0,526.545,308.6Z" transform="translate(-494.518 -300.074)"/>
    </g>
    <path id="Path_3" data-name="Path 3" d="M487.869,310.989a.995.995,0,0,1-.7-1.7l20.683-20.683a.994.994,0,1,1,1.406,1.406L488.573,310.7A.99.99,0,0,1,487.869,310.989Z" transform="translate(-10.455 0)"/>
    <g id="Group_2" data-name="Group 2" transform="translate(482.168 294.065)">
      <path id="Path_4" data-name="Path 4" d="M507.1,312.31c-.008-.094-.014-.187-.014-.283a3.5,3.5,0,0,1,3.5-3.5c.1,0,.189.007.283.015l1.726-1.726a5.577,5.577,0,0,0-7.218,7.218Z" transform="translate(-504.997 -306.439)"/>
      <path id="Path_5" data-name="Path 5" d="M521.773,319.448c.008.094.014.187.014.283a3.5,3.5,0,0,1-3.5,3.5c-.1,0-.189-.007-.283-.014l-1.726,1.726a5.577,5.577,0,0,0,7.218-7.218Z" transform="translate(-512.702 -314.143)"/>
    </g>
  </g>
</svg>
