<svg id="hospitality_icon" data-name="hospitality icon" xmlns="http://www.w3.org/2000/svg" width="38.937" height="46.411" viewBox="0 0 38.937 46.411">
  <path id="Path_203" data-name="Path 203" d="M996.32,481.817c0-2.362-.008-4.725.007-7.087,0-.428-.118-.634-.572-.574-.209.028-.325.118-.331.332,0,.176-.007.352-.007.529q0,6.8,0,13.592a4.471,4.471,0,0,1-.034.685.687.687,0,0,1-.711.65q-1.772.015-3.543,0a.691.691,0,0,1-.728-.74c-.011-.176,0-.353,0-.529,0-4.6-.006-9.2.008-13.8,0-.486-.07-.746-.647-.74s-.828-.328-.83-.994c-.007-2.1-.005-4.2,0-6.293,0-1.851.006-3.7,0-5.552a5.6,5.6,0,0,1,3.177-5.319c.375-.2.41-.295.1-.618a5.008,5.008,0,0,1-1.151-5.655,4.908,4.908,0,0,1,4.723-3.241,5.2,5.2,0,0,1,3.625,9c-.226.22-.208.309.062.44a5.71,5.71,0,0,1,3.343,5.644c-.016,3.772,0,7.545,0,11.318,0,1-.112,1.129-1.106,1.291-.235.038-.349.138-.348.373,0,.159,0,.317,0,.476q0,6.875,0,13.751c0,1.018-.182,1.2-1.2,1.2h-2.7c-.941,0-1.123-.175-1.123-1.1Q996.317,485.334,996.32,481.817Zm4.987-15.434c0-1.814.01-3.629,0-5.443a4.063,4.063,0,0,0-3.549-4.026,18.446,18.446,0,0,0-3.323-.053,4.147,4.147,0,0,0-4.024,4.4c.079,1.348.032,2.7.031,4.055,0,2.233,0,4.466-.027,6.7-.005.478.15.646.638.643q4.809-.025,9.618,0c.528,0,.652-.192.646-.679C1001.292,470.118,1001.305,468.25,1001.307,466.383Zm-5.414-18.462a3.736,3.736,0,0,0-.065,7.471,3.736,3.736,0,1,0,.065-7.471Zm-1.974,33.42c0-1.939.009-3.878,0-5.817-.01-1.583.219-1.355-1.371-1.371-.707-.007-.709,0-.71.7q0,6.108,0,12.216c0,1.455,0,1.434,1.437,1.454.522.007.66-.179.655-.674C993.907,485.678,993.919,483.51,993.919,481.342Zm5.925.054c0-1.957.009-3.914,0-5.87-.01-1.584.219-1.356-1.37-1.372-.708-.007-.71,0-.71.7q0,6.108,0,12.216c0,1.456,0,1.435,1.436,1.454.52.007.661-.176.656-.673C999.832,485.7,999.844,483.547,999.844,481.4Z" transform="translate(-963.87 -444.275)" fill="#fff"/>
  <path id="Path_204" data-name="Path 204" d="M764.884,565.523H754.357c-.7,0-.7,0-.7.71q0,7.458,0,14.917c0,.851-.233,1.219-.759,1.21-.495-.008-.738-.392-.739-1.19q0-9.945,0-19.889c0-1.017.192-1.2,1.2-1.206.758,0,1.516-.011,2.274-.005.43,0,.645-.1.635-.622-.038-1.992-.02-3.985-.014-5.977a4.312,4.312,0,0,1,4.464-4.48q3.6-.013,7.194,0a4.316,4.316,0,0,1,4.479,4.519c0,1.975.011,3.95-.007,5.924,0,.445.057.668.593.633.875-.057,1.757-.013,2.635-.032.667-.014,1,.263,1,.927.012,1.146.006,2.292,0,3.438,0,.853-.256,1.115-1.1,1.118-1.816.006-3.632,0-5.448,0Zm-7.194-9.243c0,1.008,0,1.818,0,2.629,0,1.226-.006,1.211,1.229,1.168.4-.014.528-.169.523-.543-.01-.74-.014-1.481.01-2.22.021-.628.522-.986,1.024-.761a.825.825,0,0,1,.459.828q.017,1.084.006,2.167c0,.354.117.508.5.488.5-.026,1.013.013,1.519.017,1.425.009,2.849.008,4.274.023.371,0,.484-.158.474-.515-.02-.687-.009-1.375,0-2.062.011-.654.29-1.011.762-1s.713.333.728.975c.011.458.007.916,0,1.374-.009,1.406-.036,1.154,1.188,1.216.373.019.56-.123.56-.513-.005-2.062.025-4.124-.014-6.185a2.784,2.784,0,0,0-2.139-2.8.8.8,0,0,0-1.017.384c-.877,1.4-1.8,2.781-2.713,4.162-.469.708-1.033.7-1.492,0-.9-1.371-1.811-2.732-2.674-4.124a.857.857,0,0,0-1.107-.421,2.682,2.682,0,0,0-1.993,2.119A23.976,23.976,0,0,0,757.69,556.281Zm6.684,5.239v0h-3.118c-2.343,0-4.687.007-7.03-.01-.438,0-.609.141-.577.579.027.368,0,.74.005,1.11,0,.82,0,.822.8.822h19.822c.141,0,.282,0,.423,0,.286,0,.418-.136.417-.42,0-.458,0-.916,0-1.374,0-.693-.014-.706-.713-.706Zm-.04-11.028c-.528,0-1.057,0-1.585,0-.3,0-.389.1-.2.375q.79,1.188,1.563,2.387c.139.216.253.274.417.02.525-.814,1.058-1.623,1.591-2.432.166-.252.082-.349-.195-.348Q765.126,550.494,764.333,550.492Z" transform="translate(-752.154 -535.959)" fill="#fff"/>
  <path id="Path_205" data-name="Path 205" d="M821.365,729.857q-3.674,0-7.348,0a2.061,2.061,0,0,1-2.251-2.226q-.012-4.176,0-8.352a2.1,2.1,0,0,1,2.187-2.259c.863-.027,1.727-.02,2.59,0,.413.009.572-.149.556-.558a6.15,6.15,0,0,1,.047-1.053,1.548,1.548,0,0,1,1.589-1.46q2.642-.041,5.286,0a1.58,1.58,0,0,1,1.612,1.451,2.879,2.879,0,0,1,.033.315c.063,1.3.063,1.292,1.39,1.3a12.676,12.676,0,0,1,2.267.073A1.985,1.985,0,0,1,830.985,719q.024,4.44,0,8.881a2,2,0,0,1-2.115,1.971C826.369,729.862,823.867,729.857,821.365,729.857Zm.065-11.344q-3.622,0-7.244,0c-.828,0-.977.153-.978,1q0,3.966,0,7.931c0,.772.2.972.967.972q7.218,0,14.435,0c.757,0,.943-.18.944-.93q0-4.019,0-8.037c0-.769-.166-.932-.932-.933Q825.026,718.51,821.43,718.513Zm-.08-3.082h-1.793c-.986,0-.963,0-.976,1-.006.479.183.6.625.591,1.318-.021,2.636-.007,3.954-.007,1.069,0,1.057,0,1.017-1.087-.013-.361-.151-.5-.507-.5C822.9,715.44,822.123,715.432,821.35,715.432Z" transform="translate(-805.455 -683.448)" fill="#fff"/>
  <path id="Path_206" data-name="Path 206" d="M821.407,425.861c1.463,0,2.925,0,4.388,0,.712,0,1,.226,1,.929,0,2.589.132,5.181-.066,7.766a4.172,4.172,0,0,1-4.1,3.749c-.722.008-1.445,0-2.167,0a4.231,4.231,0,0,1-4.427-4.217c-.063-2.412-.022-4.828-.011-7.242,0-.73.281-.984,1-.986C818.482,425.858,819.945,425.86,821.407,425.861Zm.026,5.144c-1.093,0-2.187.025-3.279-.011-.525-.017-.672.173-.65.67.034.774.006,1.551.01,2.327a2.782,2.782,0,0,0,2.869,2.875c.705.006,1.411.008,2.116,0a2.779,2.779,0,0,0,2.807-2.776c.014-.846-.012-1.693.01-2.539.011-.41-.131-.561-.549-.552C823.655,431.02,822.544,431.005,821.433,431ZM821.4,427.3h-2.217c-1.809,0-1.8,0-1.676,1.841.022.319.146.427.453.426q3.457-.009,6.914,0c.322,0,.44-.135.433-.443-.011-.44-.02-.88,0-1.319.021-.4-.154-.516-.533-.511C823.653,427.31,822.528,427.3,821.4,427.3Z" transform="translate(-809.242 -425.86)" fill="#fff"/>
  <path id="Path_207" data-name="Path 207" d="M843.6,774.7c0,.756,0,1.513,0,2.269a3.612,3.612,0,0,1-.027.526.681.681,0,0,1-.742.664.668.668,0,0,1-.707-.7q-.027-2.717,0-5.433a.718.718,0,0,1,.725-.759.737.737,0,0,1,.739.8c.024.879.007,1.758.007,2.638Z" transform="translate(-832.594 -734.712)" fill="#fff"/>
  <path id="Path_208" data-name="Path 208" d="M950.822,774.705c0,.828.008,1.657,0,2.485-.007.607-.257.915-.715.923-.442.007-.725-.254-.736-.84-.032-1.744-.034-3.489-.017-5.233a.748.748,0,0,1,.765-.832c.411.026.691.367.7.906.013.864,0,1.727,0,2.591Z" transform="translate(-928.478 -734.667)" fill="#fff"/>
</svg>
