<svg xmlns="http://www.w3.org/2000/svg" width="16" height="19.448" viewBox="0 0 16 19.448">
  <g id="location_icon" data-name="location icon" transform="translate(-159.849 -253.865)">
    <path id="Subtraction_1" data-name="Subtraction 1" d="M8,19.448H8a41.35,41.35,0,0,1-4-3.936A23.472,23.472,0,0,1,1.25,11.78,8.021,8.021,0,0,1,0,7.929a7.953,7.953,0,0,1,.687-3.29A7.614,7.614,0,0,1,2.5,2.141a8.135,8.135,0,0,1,11,0,7.614,7.614,0,0,1,1.813,2.5A7.953,7.953,0,0,1,16,7.929a8.021,8.021,0,0,1-1.25,3.851A23.472,23.472,0,0,1,12,15.512a41.35,41.35,0,0,1-4,3.936ZM8,2.809a4.16,4.16,0,1,0,4.16,4.16A4.165,4.165,0,0,0,8,2.809Z" transform="translate(159.849 253.865)" fill="#fff"/>
  </g>
</svg>
