<svg xmlns="http://www.w3.org/2000/svg" width="46.294" height="44.377" viewBox="0 0 46.294 44.377">
  <g id="retail_icon" data-name="retail icon" transform="translate(9039 -963.943)">
    <path id="Path_264" data-name="Path 264" d="M758.323,470.557a4.812,4.812,0,0,1-.847-.075,5.033,5.033,0,0,1-4.148-3.917,1.053,1.053,0,0,0-1.115-.852q-4.275,0-8.546,0c-3.571,0-7.128,0-10.573-.007a1.006,1.006,0,0,0-1.083.881,4.791,4.791,0,0,1-1.5,2.65,4.95,4.95,0,0,1-3.381,1.316,5.837,5.837,0,0,1-.694-.042,5.072,5.072,0,0,1-.22-10.035l.127-.026a2.266,2.266,0,0,1,.43-.065l.053,0c.053,0,.1.007.154.007.628,0,1-.365,1.1-1.084.077-.555.169-1.12.259-1.667.083-.508.168-1.033.243-1.553a5.482,5.482,0,0,0-.177-1.985c-.051-.236-.1-.46-.135-.683-.563-3.558-1.149-7.173-1.716-10.668l-.276-1.7q-.269-1.66-.541-3.319c-.368-2.256-.749-4.588-1.111-6.883a1.725,1.725,0,0,0-1.055-1.4c-.564-.268-1.131-.57-1.679-.862-.349-.186-.709-.378-1.069-.561a1.259,1.259,0,0,1-.66-.693.931.931,0,0,1,.08-.73.905.905,0,0,1,.822-.42,1.322,1.322,0,0,1,.6.147c.353.181.71.38,1.055.571a20.3,20.3,0,0,0,2.153,1.084,2.189,2.189,0,0,1,1.562,2.113,7.706,7.706,0,0,0,.14,1.007c.041.221.079.429.1.637a1.038,1.038,0,0,0,.982.984c3.122.437,6.286.894,8.97,1.283l3.406.494c2.832.411,5.76.836,8.641,1.248q2.231.319,4.463.644c2.569.372,5.226.757,7.841,1.121l1.208.168q1.615.224,3.23.453a1.236,1.236,0,0,1,.864.438,1.178,1.178,0,0,1,.071.924c-.568,2.184-1.156,4.4-1.725,6.549q-.516,1.947-1.03,3.895c-.455,1.729-.938,3.569-1.395,5.382-.272,1.081-.549,1.3-1.648,1.3H745.62v0h-5.858c-2.427,0-5.307,0-8.262-.011h-.012a1.105,1.105,0,0,0-1.263,1.065c-.094.783-.233,1.581-.367,2.352l-.067.387a1.057,1.057,0,0,0,.418,1.1,4.641,4.641,0,0,1,1.411,1.724,1.041,1.041,0,0,0,1.078.592l2.229,0,4.419,0h5.82c2.178,0,4.753,0,7.332.01a1.415,1.415,0,0,0,1.4-.832,5.045,5.045,0,0,1,4.43-2.612,5.152,5.152,0,0,1,4.99,5.93A5.13,5.13,0,0,1,758.323,470.557Zm-.057-1.9c.051,0,.1,0,.152,0a3.273,3.273,0,0,0,3.09-3.182,3.062,3.062,0,0,0-.9-2.185,3.321,3.321,0,0,0-2.375-.964h-.024a3.087,3.087,0,0,0-2.192.934,3.136,3.136,0,0,0-.909,2.242,3.169,3.169,0,0,0,3.137,3.151Zm-31.177-6.319a3.072,3.072,0,0,0-3.194,3.206,3.085,3.085,0,0,0,3.185,3.1h.012a3.1,3.1,0,0,0,3.15-3.153,3.093,3.093,0,0,0-3.149-3.157Zm20.232-12.119a.883.883,0,0,0-.657.248,1.036,1.036,0,0,0-.248.754c.013.714.022,1.559,0,2.416a1.013,1.013,0,0,0,.253.775,1.033,1.033,0,0,0,.756.272h.058c.235-.006.49-.009.8-.009l.561,0,.566,0h1.217c.282,0,.564,0,.847.005h.028a.919.919,0,0,0,1-.855c.073-.542.16-1.094.244-1.629q.053-.335.105-.671a.868.868,0,0,0-.158-.706.88.88,0,0,0-.666-.305c-1.638-.1-3.144-.192-4.605-.291Q747.37,450.222,747.321,450.222ZM734.6,454.677c.324,0,.588,0,.833.008h.049a.917.917,0,0,0,.713-.264.954.954,0,0,0,.194-.764c-.1-1.028-.171-2.082-.227-3.068a.983.983,0,0,0-1-1.019c-.609-.035-1.219-.074-1.828-.112-.813-.052-1.654-.1-2.483-.149-.077,0-.147-.006-.21-.006a.987.987,0,0,0-.787.289,1.191,1.191,0,0,0-.139,1.013c.078.461.163.927.245,1.378.109.6.221,1.213.318,1.819a.962.962,0,0,0,1.033.88h.021c.279,0,.559,0,.838,0h1.241l.6,0Zm24.092,0c.332,0,.6,0,.853.007h.033a1.01,1.01,0,0,0,1.066-.883c.111-.515.255-1.064.442-1.678a.923.923,0,0,0-.069-.8.909.909,0,0,0-.721-.337c-1.4-.074-2.871-.16-4.506-.262-.033,0-.065,0-.1,0a.964.964,0,0,0-1.005.952c-.071.7-.136,1.328-.216,1.956a.932.932,0,0,0,.193.766.978.978,0,0,0,.755.29h.024c.276,0,.552,0,.828,0h1.2l.612,0Zm-16.026,0c.334,0,.607,0,.859.006h.029a.9.9,0,0,0,.979-.995c-.011-.816-.011-1.677,0-2.633a.952.952,0,0,0-.971-1.03l-2.469-.12-2.1-.1-.071,0a.846.846,0,0,0-.657.261.908.908,0,0,0-.2.728c.114,1.167.2,2.111.258,2.973a.9.9,0,0,0,.975.917h.018c.291,0,.582,0,.873,0h2.477Zm13.725-9.885c-.29,0-.793.129-.9.992q-.029.243-.056.487c-.054.481-.111.979-.189,1.458a.866.866,0,0,0,.908,1.126c1.535.072,3.056.163,4.868.279.034,0,.067,0,.1,0a.911.911,0,0,0,.946-.743c.194-.773.361-1.411.525-2.008a.833.833,0,0,0-.094-.745.849.849,0,0,0-.7-.315c-.486-.017-.878-.043-1.234-.08-.94-.1-1.865-.2-2.844-.309l-1.139-.126A1.068,1.068,0,0,0,756.393,444.792Zm-9.976,1.217c0,.13,0,.261,0,.391,0,.3.006.576-.007.856a1.069,1.069,0,0,0,.235.8,1.028,1.028,0,0,0,.757.3c1.4.057,2.833.136,4.214.211l.8.044.067,0a.772.772,0,0,0,.807-.713c.126-.871.265-1.779.378-2.508a.846.846,0,0,0-.144-.673.86.86,0,0,0-.628-.309c-2.077-.2-3.895-.385-5.556-.563a1.332,1.332,0,0,0-.144-.008.76.76,0,0,0-.566.217.866.866,0,0,0-.216.635c0,.266,0,.538,0,.8h0Zm-8.225-3.09a.7.7,0,0,0-.537.218.8.8,0,0,0-.173.624c.088.982.176,2.04.269,3.234a.862.862,0,0,0,.865.844q2.459.147,4.919.3l.091,0a.9.9,0,0,0,.668-.254.946.946,0,0,0,.248-.71c-.006-.321,0-.65,0-.968q0-.2,0-.4v-.4c0-.323,0-.646,0-.969a.861.861,0,0,0-.813-.959c-1.63-.161-3.348-.338-5.406-.557A1.236,1.236,0,0,0,738.192,442.919ZM729.237,442a.734.734,0,0,0-.591.246.855.855,0,0,0-.144.7c.231,1.37.414,2.5.576,3.56a.969.969,0,0,0,1.03.9c1.405.02,2.791.111,4.091.2.2.014.381.026.532.026h0a1.028,1.028,0,0,0,.772-.254c.273-.274.272-.634.269-1.231v-.249c-.012-.192-.026-.393-.041-.6-.038-.519-.076-1.056-.088-1.6a1.139,1.139,0,0,0-1.188-1.22c-1.58-.084-3.185-.267-4.736-.443l-.3-.034A1.6,1.6,0,0,0,729.237,442Zm27.894-3.122a.78.78,0,0,0-.807.731c-.069.537-.139,1.073-.216,1.66l-.115.879v.011c-.06.684.681.758.925.782.517.052,1.04.11,1.544.166l.779.086.284.031q1.45.157,2.9.31a1.781,1.781,0,0,0,.189.011.911.911,0,0,0,.943-.735c.147-.6.311-1.221.5-1.9a.85.85,0,0,0-.8-1.184c-.71-.073-1.412-.168-2.248-.287-1.245-.177-2.519-.37-3.616-.536A1.734,1.734,0,0,0,757.131,438.878Zm-9.858-1.4a.837.837,0,0,0-.627.242.924.924,0,0,0-.233.709c.009.283.007.577.005.861,0,.132,0,.263,0,.4s0,.252,0,.378c0,.282.008.548-.008.812a.938.938,0,0,0,.936,1.082c1.7.176,3.434.374,5.107.565l.643.073a1.3,1.3,0,0,0,.146.009.818.818,0,0,0,.851-.749q.078-.563.153-1.125c.06-.447.121-.894.183-1.341a.818.818,0,0,0-.735-.992l-.9-.142c-1.749-.276-3.557-.561-5.353-.765A1.471,1.471,0,0,0,747.273,437.474Zm-9.534-1.395a.748.748,0,0,0-.588.239.96.96,0,0,0-.166.776c.081.666.135,1.351.188,2.015l.025.319c.1,1.256.3,1.467,1.533,1.619.874.107,1.763.207,2.623.3.683.076,1.388.155,2.081.237a1.725,1.725,0,0,0,.2.013h0a.882.882,0,0,0,.673-.262,1.043,1.043,0,0,0,.231-.79c-.015-.239-.014-.48-.01-.732h.005l0-.51c0-.128,0-.257,0-.385-.005-.278-.01-.541.01-.8a1.079,1.079,0,0,0-1.074-1.258c-1.9-.248-3.745-.506-5.486-.766A1.64,1.64,0,0,0,737.74,436.079Zm-9.587-1.408a.815.815,0,0,0-.651.271,1,1,0,0,0-.163.838c.04.252.082.5.124.756.127.767.258,1.56.343,2.338a1.223,1.223,0,0,0,1.22,1.193c1.469.155,2.962.323,4.406.484l.951.106a1.428,1.428,0,0,0,.163.01.756.756,0,0,0,.583-.234.812.812,0,0,0,.185-.649c-.1-1.046-.19-2.136-.277-3.238a1.041,1.041,0,0,0-1-1.018c-.415-.044-.832-.1-1.239-.159q-1.613-.244-3.225-.495l-1.264-.195H728.3C728.248,434.674,728.2,434.671,728.153,434.671Z" transform="translate(-9759.121 537.763)" fill="#fff"/>
  </g>
</svg>
