<svg id="search_icon" data-name="search icon" xmlns="http://www.w3.org/2000/svg" width="16.849" height="16.849" viewBox="0 0 16.849 16.849">
  <path id="Path_1" data-name="Path 1" d="M454.112,148.115a6.9,6.9,0,0,1,6.684,5.7,6.8,6.8,0,0,1-.923,4.909.2.2,0,0,0,.039.3q1.752,1.741,3.493,3.493a1.41,1.41,0,0,1-1.876,2.1c-.112-.1-.214-.2-.318-.308q-1.659-1.658-3.316-3.32c-.084-.085-.137-.1-.247-.033a6.953,6.953,0,1,1-6.157-12.394A7.322,7.322,0,0,1,454.112,148.115Zm-.149,11.789a4.835,4.835,0,1,0-4.836-4.824A4.824,4.824,0,0,0,453.962,159.9Z" transform="translate(-447.006 -148.115)" fill="#fff"/>
</svg>
