<svg id="technology_icon" data-name="technology icon" xmlns="http://www.w3.org/2000/svg" width="48.658" height="48.442" viewBox="0 0 48.658 48.442">
  <path id="Path_200" data-name="Path 200" d="M334.753,330.272H334.1c-.324-.152-.745-.223-.955-.472a2.75,2.75,0,0,0-2.452-.774q-2.211.039-4.422,0c-1.2-.022-1.541-.374-1.551-1.561-.017-2.085.016-4.171-.012-6.257-.045-3.432.566-2.895-3.075-2.965-.859-.017-1.137.354-1.125,1.165.029,1.977.01,3.955.011,5.933a1.78,1.78,0,0,0,.331,1.106c1.255,1.732.932,2.9-1.024,3.828h-.865c-1.889-1.111-2.111-2.145-.817-3.916a1.455,1.455,0,0,0,.3-.9c0-2.088-.006-4.176,0-6.264,0-.616-.236-.948-.886-.944q-1.944.013-3.888,0c-.631-.005-.928.279-.917.913.011.684,0,1.368,0,2.052-.007,1.945-.24,2.176-2.167,2.192-1.414.012-2.817-.183-4.1.84a1.9,1.9,0,0,1-2.551-.717,2.11,2.11,0,0,1,.292-2.758,2.019,2.019,0,0,1,2.668-.178,2.821,2.821,0,0,0,2.365.732c.5-.042,1.277.212,1.331-.532.067-.912.592-2.131-.386-2.707a4.1,4.1,0,0,1-2.148-4.235c.055-.728-.268-1.05-1.01-1.045-2.52.017-5.041.022-7.561,0-.742-.008-.916.344-.9,1,.028,1.223.03,2.449,0,3.672a2.325,2.325,0,0,0,.523,1.685,1.961,1.961,0,0,1,.117,2.417,2.167,2.167,0,0,1-3.841-.385v-1.514c1.1-1,1.153-2.3,1.092-3.658-.055-1.221-.032-2.448,0-3.67.036-1.263.384-1.6,1.634-1.61,2.339-.016,4.679.015,7.018-.012,3.4-.039,2.863.532,2.94-3,.019-.888-.309-1.222-1.2-1.207-2.195.037-4.391.012-6.586.014a1.921,1.921,0,0,0-1.215.334c-1.6,1.167-2.552,1-3.691-.6v-1.73c1.155-1.22,2.291-1.625,3.168-.837a3.684,3.684,0,0,0,2.8.756q1.836,0,3.671,0c3.038,0,3.053,0,3.034-3-.019-3.055.409-2.683-2.695-2.7-3.279-.015-3.277,0-3.285-3.356a3.481,3.481,0,0,0-.57-2.446,2.03,2.03,0,0,1,.283-2.9,2.122,2.122,0,0,1,2.852.073,2.041,2.041,0,0,1,.065,3c-.893.95-.507,2.02-.513,3.062a.446.446,0,0,0,.422.431c1.535.016,3.139.411,4.579-.207a6.553,6.553,0,0,1,3.067-.818c.743.051,1.03-.307,1.026-1.031-.015-2.771-.023-5.543.005-8.314.009-.866-.377-1.14-1.183-1.107-.934.038-1.872.029-2.807,0a3.318,3.318,0,0,0-2.513.677,1.737,1.737,0,0,1-1.943.152,2.018,2.018,0,0,1-1.286-1.952,2.294,2.294,0,0,1,1.77-2.19h.649c.293.135.678.195.864.419.754.906,1.752.841,2.764.824,1.152-.019,2.3-.006,3.456,0,2.134,0,2.3.161,2.3,2.244,0,2.448-.022,4.9.006,7.344.039,3.4-.544,2.875,2.99,2.949.886.018,1.222-.306,1.209-1.195-.035-2.519-.013-5.04-.013-7.56a1.862,1.862,0,0,0-.35-1.208c-1.265-1.674-.911-2.915,1.049-3.813h.649c2,.847,2.358,2.11,1.061,3.871a1.6,1.6,0,0,0-.331,1c0,2.63.012,5.259-.008,7.889-.006.75.32,1.029,1.045,1.013,1.224-.026,2.45-.021,3.674,0,.682.01.986-.28.978-.968-.017-1.333-.007-2.666,0-4,.008-1.647.286-1.908,1.97-1.935,1.482-.024,2.963.214,4.312-.848.758-.6,1.988-.078,2.538.759a2.109,2.109,0,0,1-.266,2.677,1.931,1.931,0,0,1-2.647.256c-.878-.875-1.872-.754-2.9-.766-.626-.007-.936.265-.931.9q.013,1.621,0,3.242a1,1,0,0,0,.667,1,3.413,3.413,0,0,1,2.014,2.514.992.992,0,0,0,1.15.866c2.233-.018,4.467-.024,6.7,0,.734.009.926-.327.91-.99q-.044-1.836,0-3.674a2.358,2.358,0,0,0-.519-1.688,1.954,1.954,0,0,1-.06-2.506,2.16,2.16,0,0,1,3.78.471v1.514a4.122,4.122,0,0,0-1.093,3.546c.062,1.219.03,2.444,0,3.666-.031,1.393-.365,1.72-1.736,1.729-2.049.012-4.1-.018-6.147.009-3.266.044-2.848-.572-2.891,3.052-.01.83.32,1.162,1.151,1.149,1.977-.031,3.954-.011,5.932-.011a1.731,1.731,0,0,0,1.1-.348c1.548-1.159,2.552-.98,3.683.616v1.73c-1.164,1.213-2.3,1.609-3.176.818a3.522,3.522,0,0,0-2.7-.738c-1.045,0-2.09-.01-3.135,0-3.237.041-2.837-.465-2.84,2.889,0,3.234-.37,2.766,2.828,2.8,2.115.021,2.316.215,2.331,2.367.009,1.35-.145,2.681.815,3.9a1.91,1.91,0,0,1-.682,2.566,2.144,2.144,0,0,1-2.689-.182,1.973,1.973,0,0,1-.277-2.735,3.015,3.015,0,0,0,.682-2.488c-.04-.459.266-1.223-.422-1.267-.912-.058-2.187-.607-2.709.364a4.083,4.083,0,0,1-4.3,2.391c-.679-.053-.99.278-.987.96.009,2.234.012,4.468,0,6.7,0,.723.285,1.062,1.029,1.041.9-.026,1.8,0,2.7,0a3.711,3.711,0,0,0,2.836-.7,1.692,1.692,0,0,1,1.944-.088,2.029,2.029,0,0,1,1.214,1.9A2.311,2.311,0,0,1,334.753,330.272Zm-14.592-32.622c-2.736,0-5.472-.014-8.208.006-1.317.01-1.766.457-1.77,1.756q-.02,7.506,0,15.013c0,1.322.436,1.792,1.733,1.8q8.154.03,16.309,0c1.342,0,1.746-.415,1.751-1.764q.026-7.506,0-15.013c0-1.408-.4-1.787-1.822-1.8C325.489,297.636,322.825,297.647,320.161,297.649Z" transform="translate(-295.394 -281.83)" fill="#fff"/>
  <path id="Path_201" data-name="Path 201" d="M392.777,386.395c-1.045,0-2.089,0-3.134,0a1.317,1.317,0,0,1-1.487-1.457q-.016-2.918,0-5.836a1.323,1.323,0,0,1,1.487-1.464q3.188-.013,6.376,0a1.289,1.289,0,0,1,1.43,1.4c.02,1.981.022,3.962,0,5.942-.013.971-.575,1.42-1.534,1.412C394.866,386.389,393.822,386.4,392.777,386.395Z" transform="translate(-368.089 -356.912)" fill="#fff"/>
</svg>
