<svg id="telecom_icon" data-name="telecom icon" xmlns="http://www.w3.org/2000/svg" width="24.71" height="52.848" viewBox="0 0 24.71 52.848">
  <path id="Path_236" data-name="Path 236" d="M906.328,594.143q0,7.042,0,14.083c0,2.539-1.4,3.944-3.94,3.952q-6.328.019-12.656,0a3.606,3.606,0,0,1-3.906-3.925q-.013-14.131,0-28.262a3.5,3.5,0,0,1,2.911-3.789c.515-.144.773-.365.736-.908-.022-.316-.007-.634,0-.951a2.406,2.406,0,1,1,4.812-.014c.03,1.893-.225,1.775,1.816,1.776,2.125,0,4.25-.013,6.376.005a3.563,3.563,0,0,1,3.85,3.855Q906.337,587.054,906.328,594.143Zm-18.534-.1q0,6.994,0,13.987c0,1.681.484,2.164,2.146,2.167q6.138.008,12.275,0c1.666,0,2.245-.555,2.247-2.214q.013-13.845,0-27.689c0-1.664-.573-2.206-2.252-2.208q-6.09-.007-12.179,0c-1.8,0-2.236.437-2.238,2.256Q887.79,587.2,887.794,594.047Z" transform="translate(-881.62 -559.34)" fill="#fff"/>
  <path id="Path_237" data-name="Path 237" d="M875.32,505.895a11.605,11.605,0,0,1,8.479,4.865,1.632,1.632,0,0,1,.454,1.022.938.938,0,0,1-1.758.464,11.186,11.186,0,0,0-3.6-3.182,10.353,10.353,0,0,0-12.508,2.176c-.309.361-.592.744-.9,1.108a.944.944,0,0,1-1.56-1.062,8.746,8.746,0,0,1,2.019-2.38C868.17,506.961,871.085,505.886,875.32,505.895Z" transform="translate(-863.769 -505.895)" fill="#fff"/>
  <path id="Path_238" data-name="Path 238" d="M888.275,529.871a6.11,6.11,0,0,0-5.222,2.432c-.157.2-.292.417-.463.6a.9.9,0,0,1-1.2.21.911.911,0,0,1-.368-1.238,5.738,5.738,0,0,1,1.459-1.856,8.007,8.007,0,0,1,12.054,1.376c.509.787.47,1.444-.136,1.716-.711.319-1.124-.138-1.5-.646A5.761,5.761,0,0,0,888.275,529.871Z" transform="translate(-877.652 -523.702)" fill="#fff"/>
  <path id="Path_239" data-name="Path 239" d="M902.29,549.96a3.878,3.878,0,0,1,3.428,2.434c.188.57.173,1.1-.437,1.373-.587.261-1.015-.016-1.337-.547-1.077-1.774-2.445-1.784-3.532-.025-.32.518-.71.848-1.319.542-.627-.315-.673-.845-.418-1.453A3.9,3.9,0,0,1,902.29,549.96Z" transform="translate(-891.911 -541.569)" fill="#fff"/>
  <path id="Path_240" data-name="Path 240" d="M910.978,625c-1.713,0-3.426.012-5.138-.005-1.1-.011-1.614-.449-1.627-1.544q-.058-4.8,0-9.61c.015-1.152.575-1.62,1.887-1.647,2.029-.042,4.06-.019,6.09-.018,1.237,0,2.476-.031,3.71.026,1.378.064,1.813.536,1.818,1.894q.019,4.567,0,9.135c-.007,1.325-.461,1.759-1.791,1.768C914.277,625.01,912.628,625,910.978,625Zm-.009-1.991c1.267,0,2.534-.019,3.8.008.661.015.987-.178.977-.912-.031-2.311-.025-4.623,0-6.934.006-.645-.227-.917-.884-.912q-3.847.026-7.695,0c-.648,0-.909.278-.905.915q.02,3.467,0,6.935c0,.646.266.914.911.9C908.435,622.994,909.7,623.009,910.969,623.01Z" transform="translate(-896.487 -591.932)" fill="#fff"/>
  <path id="Path_241" data-name="Path 241" d="M907,711.822a10.346,10.346,0,0,1-1.177-.124.854.854,0,0,1-.741-.856.878.878,0,0,1,.756-.944,6.335,6.335,0,0,1,2.344-.011.833.833,0,0,1,.727.865.9.9,0,0,1-.745.959A9.493,9.493,0,0,1,907,711.822Z" transform="translate(-897.216 -670.958)" fill="#fff"/>
  <path id="Path_242" data-name="Path 242" d="M957.688,730.872c.317,0,.634-.015.949,0a.853.853,0,0,1,.889.813.874.874,0,0,1-.746,1.043,5.362,5.362,0,0,1-2.263-.014.877.877,0,0,1-.761-1.032.84.84,0,0,1,.888-.81C956.991,730.857,957.34,730.873,957.688,730.872Z" transform="translate(-938.234 -688.028)" fill="#fff"/>
  <path id="Path_243" data-name="Path 243" d="M908.061,751.885c.284,0,.569-.01.853,0,.571.024,1.018.273,1.043.877a.976.976,0,0,1-1.006,1.042,10.351,10.351,0,0,1-1.8,0,.963.963,0,0,1-.994-1.047c.032-.61.482-.846,1.048-.872C907.492,751.874,907.776,751.885,908.061,751.885Z" transform="translate(-898.086 -705.04)" fill="#fff"/>
  <path id="Path_244" data-name="Path 244" d="M933.065,751.893c.316,0,.634-.024.947.005a.94.94,0,0,1,.095,1.875,9.783,9.783,0,0,1-1.982.029.959.959,0,0,1-.978-1.061c.043-.6.5-.836,1.066-.854.284-.009.568,0,.853,0Z" transform="translate(-918.313 -705.042)" fill="#fff"/>
  <path id="Path_245" data-name="Path 245" d="M958.057,751.894c.316,0,.633-.018.947,0a.907.907,0,0,1,.961.859.926.926,0,0,1-.9,1.032,10.373,10.373,0,0,1-1.982.005.933.933,0,0,1-.918-1.017c.027-.606.462-.86,1.034-.885.284-.013.568,0,.853,0Z" transform="translate(-938.574 -705.044)" fill="#fff"/>
  <path id="Path_246" data-name="Path 246" d="M932.241,709.968c.284,0,.57-.023.851.005.566.056.984.333.976.945a.954.954,0,0,1-.964.978,11.267,11.267,0,0,1-1.795.005c-.594-.046-1.053-.359-1.022-1.013s.49-.912,1.1-.929c.284-.008.568,0,.852,0Z" transform="translate(-917.619 -671.098)" fill="#fff"/>
  <path id="Path_247" data-name="Path 247" d="M957.209,711.931c-.859-.042-1.778.136-1.934-.985-.1-.7.5-1.009,1.8-1a6.536,6.536,0,0,1,1.131.063.911.911,0,0,1,.863.959.923.923,0,0,1-.911.916A9.461,9.461,0,0,1,957.209,711.931Z" transform="translate(-937.843 -671.086)" fill="#fff"/>
  <path id="Path_248" data-name="Path 248" d="M907.478,730.882c.347,0,.7-.024,1.041.006a.8.8,0,0,1,.8.784.853.853,0,0,1-.644,1.019,4.767,4.767,0,0,1-2.437,0,.855.855,0,0,1-.694-.988.877.877,0,0,1,.893-.819c.346-.024.694,0,1.042,0Z" transform="translate(-897.582 -688.031)" fill="#fff"/>
  <path id="Path_249" data-name="Path 249" d="M932.754,732.7c-.439-.062-.851-.087-1.245-.184a.792.792,0,0,1-.641-.826.834.834,0,0,1,.657-.92,7.446,7.446,0,0,1,2.445-.014.81.81,0,0,1,.691.8.85.85,0,0,1-.633.94A9.479,9.479,0,0,1,932.754,732.7Z" transform="translate(-918.091 -687.859)" fill="#fff"/>
  <path id="Path_250" data-name="Path 250" d="M906.849,691.133a9.1,9.1,0,0,1-1.138-.06.877.877,0,0,1-.776-.935.834.834,0,0,1,.713-.879,5.454,5.454,0,0,1,2.172-.031.923.923,0,0,1,.891.944c-.007.618-.443.876-1.007.927-.283.026-.57,0-.856,0Z" transform="translate(-897.096 -654.243)" fill="#fff"/>
  <path id="Path_251" data-name="Path 251" d="M956.845,691.261c-.19,0-.38,0-.57,0-.667.011-1.246-.154-1.266-.945-.018-.735.534-.962,1.15-.992a11.012,11.012,0,0,1,1.7.052.9.9,0,0,1,.909,1.01c-.04.562-.453.809-.976.854-.314.027-.633.005-.949.005Z" transform="translate(-937.635 -654.385)" fill="#fff"/>
  <path id="Path_252" data-name="Path 252" d="M931.652,689.863c.317,0,.634-.018.949,0a.9.9,0,0,1,.914.8.86.86,0,0,1-.619.961,3.851,3.851,0,0,1-2.517.018.9.9,0,0,1,.23-1.774c.345-.031.7-.006,1.043-.006Z" transform="translate(-917.158 -654.826)" fill="#fff"/>
</svg>
