<svg id="travel_icon" data-name="travel icon" xmlns="http://www.w3.org/2000/svg" width="48.363" height="44.729" viewBox="0 0 48.363 44.729">
  <path id="Path_262" data-name="Path 262" d="M739.294,449.142a21.88,21.88,0,0,1,15.04,5.787.9.9,0,0,0,.713.2,15.783,15.783,0,0,1,4.1.309c2.762.591,4.926,2.837,4.207,6.136a11.411,11.411,0,0,1-1.6,3.839,2.809,2.809,0,0,0-.412,2.161,22.633,22.633,0,0,1-.606,10.449,22.427,22.427,0,0,1-14.432,14.762,23.3,23.3,0,0,1-8.633,1.046,22.176,22.176,0,0,1-13.3-5.689,1.033,1.033,0,0,0-.808-.247,18.229,18.229,0,0,1-4.05-.3,5.106,5.106,0,0,1-4.1-6.81,14.475,14.475,0,0,1,1.716-3.68,1.49,1.49,0,0,0,.227-1.19A22.275,22.275,0,0,1,725,454.285a22.724,22.724,0,0,1,11.49-5.022A25.6,25.6,0,0,1,739.294,449.142Zm-20.4,25.385a.665.665,0,0,0,.425-.305,35.731,35.731,0,0,1,3.07-3.231c.521-.495,1.022-.531,1.4-.122s.3.963-.22,1.441c-.054.049-.113.094-.167.143a29.714,29.714,0,0,0-3.757,4.162.735.735,0,0,0-.129.719,15.324,15.324,0,0,0,.968,2.573c.175.328.228.9.568.912.283.013.37-.571.577-.869.549-.786.795-1.77,1.694-2.328,1.433-.891,2.82-1.857,4.236-2.775a.875.875,0,0,1,1.441.4,30.65,30.65,0,0,0,1.582,3.084,3.911,3.911,0,0,1,.378,3.941,3.46,3.46,0,0,0-.088,2.316c.2.722.286,1.477.455,2.21a1.906,1.906,0,0,1-.341,1.66c-.249.337-.428.726-.654,1.083-.2.319-.084.472.223.633a22.069,22.069,0,0,0,2.606,1.036c.423.157.609.066.76-.37.408-1.178.874-2.337,1.306-3.507a1.113,1.113,0,0,1,.853-.766c.768-.18,1.523-.415,2.291-.594a1.822,1.822,0,0,0,.935-.532c.766-.791,1.549-1.567,2.331-2.343.831-.825,1.47-.656,1.842.468.4,1.2.814,2.4,1.214,3.6a1.1,1.1,0,0,0,.589.681c1.151.571,2.293,1.158,3.436,1.746a.531.531,0,0,0,.566,0,21.9,21.9,0,0,0,3.083-2.11,21.063,21.063,0,0,0,4.984-5.959,17.742,17.742,0,0,0,1.37-3.06c.124-.38,0-.469-.37-.5a2.455,2.455,0,0,0-2.109.7,2.256,2.256,0,0,1-.395.3,5.333,5.333,0,0,0-2.183,2.456c-.436,1.067-1.023,2.072-1.543,3.105a.885.885,0,0,1-.83.613.946.946,0,0,1-.909-.675c-.04-.1-.075-.207-.115-.31-.417-1.058-.816-2.123-1.259-3.17a2.178,2.178,0,0,1-.143-1.285c.212-1.191.406-2.386.609-3.578a1.973,1.973,0,0,0-.148-1.129c-.324-.76-.677-1.51-.943-2.29a1.438,1.438,0,0,0-.826-.879q-1.855-.9-3.687-1.852a.958.958,0,0,1-.467-1.5c.685-1.359,1.376-2.715,2.051-4.079a1.658,1.658,0,0,1,1.281-1c.9-.153,1.8-.37,2.7-.542a.857.857,0,0,0,.668-.5c.352-.726.726-1.442,1.084-2.166a1.429,1.429,0,0,1,.783-.728c.867-.351,1.725-.726,2.58-1.105.144-.064.4-.073.322-.352a1.845,1.845,0,0,0-1.319-.93c-.978.156-1.963.285-2.926.509a39.854,39.854,0,0,0-5.691,1.7,3.035,3.035,0,0,1-.687.193.772.772,0,0,1-.917-.527.835.835,0,0,1,.33-1.018,1.78,1.78,0,0,1,.44-.224,52.037,52.037,0,0,1,7.07-2.072,2.636,2.636,0,0,0,.987-.232,17.521,17.521,0,0,0-2-1.417,20.718,20.718,0,0,0-4.958-2.22,1.129,1.129,0,0,0-.882.1,6.9,6.9,0,0,0-3.142,2.882c-.607,1.085-.916,1.126-2.006.551-1.436-.758-2.861-1.5-4.573-1.218a1,1,0,0,1-.71-.252c-.637-.434-1.288-.847-1.92-1.288a.548.548,0,0,0-.607-.062,22.954,22.954,0,0,0-5.163,3.128,19.428,19.428,0,0,0-3.755,4.069,20.672,20.672,0,0,0-3.738,11.053A28.143,28.143,0,0,0,718.9,474.527Zm32.5,7.551c.424-.881.812-1.683,1.2-2.488a2.5,2.5,0,0,1,.751-1c.888-.649,1.777-1.3,2.652-1.966a1.727,1.727,0,0,1,1.376-.386c.429.062.879-.04,1.316-.013.614.037.826-.274.913-.829a21.987,21.987,0,0,0-.324-9.108,22.834,22.834,0,0,0-2.793-6.255.583.583,0,0,0-.9-.247c-.774.376-1.575.7-2.374,1.022a1.339,1.339,0,0,0-.8.779c-.283.718-.684,1.38-1.014,2.075a1.461,1.461,0,0,1-1.227.869c-.887.139-1.768.319-2.65.49a.688.688,0,0,0-.566.372c-.473.972-.968,1.935-1.468,2.893-.158.3-.143.489.2.648.882.408,1.765.819,2.619,1.28.581.314,1.263.507,1.531,1.25.4,1.121.854,2.227,1.3,3.332a2.107,2.107,0,0,1,.145,1.13,19.734,19.734,0,0,1-.486,2.928C750.435,480.041,750.916,480.983,751.4,482.079Zm-21.808,5.1c-.049-.281-.073-.52-.134-.749a7.781,7.781,0,0,1,.009-5.374,1.277,1.277,0,0,0,.069-.322,1.05,1.05,0,0,0-.074-.646c-.482-.969-.967-1.937-1.443-2.909-.137-.278-.305-.333-.565-.156-.561.382-1.121.766-1.7,1.126a6.023,6.023,0,0,0-2.541,2.566,9.249,9.249,0,0,1-.845,1.48.846.846,0,0,0,.027,1.134,24.059,24.059,0,0,0,3.181,3.565,19.952,19.952,0,0,0,2.388,1.855c.172.115.44.359.581.169A5.17,5.17,0,0,0,729.588,487.175Zm17.355,3.489c-1.032-.514-1.954-.994-2.895-1.432a1.722,1.722,0,0,1-.974-1.18c-.245-.845-.558-1.67-.813-2.512-.127-.421-.281-.333-.512-.1-.473.487-.967.955-1.43,1.451a2.2,2.2,0,0,1-1.3.742c-.63.1-1.241.326-1.863.484a.706.706,0,0,0-.541.485c-.31.863-.647,1.716-.963,2.577-.221.6-.189.655.432.725a25.357,25.357,0,0,0,6.307.013A20.653,20.653,0,0,0,746.943,490.664Zm13.513-26.588a8.937,8.937,0,0,0,1.244-3.366,2.971,2.971,0,0,0-1.951-3.227,10.4,10.4,0,0,0-3.523-.623A22.984,22.984,0,0,1,760.456,464.076Zm-38.089,22.107a3.67,3.67,0,0,0-.22-.349,20.479,20.479,0,0,1-3.52-5.8c-.1-.255-.2-.511-.318-.761-.093-.2-.233-.341-.362-.038a10.38,10.38,0,0,0-1,2.786,3.014,3.014,0,0,0,1.2,3.1C719.4,485.987,720.833,486,722.367,486.183ZM733.9,451.612a1.839,1.839,0,0,0,1.681.707,3.6,3.6,0,0,1,2.491.449c.438.264.915.463,1.37.7a.377.377,0,0,0,.557-.129c.593-.786.965-1.774,2-2.2A19.563,19.563,0,0,0,733.9,451.612Z" transform="translate(-715.133 -449.142)" fill="#fff"/>
  <path id="Path_263" data-name="Path 263" d="M802.22,524.3c.042.508.105.928.107,1.348a2.768,2.768,0,0,1-2.04,2.576c-.481.111-.758-.172-.977-.54-.327-.552-.674-1.1-.962-1.668a.59.59,0,0,0-.805-.325c-.372.1-.751.173-1.127.258a.94.94,0,0,1-1.1-.428q-.434-.7-.824-1.43a.786.786,0,0,1,.137-.922c.282-.338.561-.679.863-1a.681.681,0,0,0,.073-.974c-.335-.5-.608-1.046-.9-1.577a.894.894,0,0,1,.342-1.359c1.259-.825,2.163-.78,3.552.174.931.639.931.639,1.844.042,1.14-.745,1.13-.737.237-1.733q-1.652-1.845-3.272-3.717c-.7-.805-.592-1.324.333-1.839a1.5,1.5,0,0,0,.193-.1c1.462-1.127,2.808-.747,4.169.244,1.319.96,2.7,1.835,4.046,2.759a.909.909,0,0,0,.969.123,4.7,4.7,0,0,1,2.108-.283c.989.036,1.98-.012,2.969.092.832.087,1.191.7.785,1.431q-.881,1.588-1.788,3.162a4.117,4.117,0,0,1-1.039,1.128.686.686,0,0,0-.261.666q.215,3.1.388,6.2a2.2,2.2,0,0,1-.943,1.947,7.556,7.556,0,0,1-1.4.874c-.73.341-1.187.131-1.447-.631-.633-1.858-1.278-3.712-1.891-5.576-.14-.424-.3-.53-.694-.29a7.858,7.858,0,0,1-1.132.565C802.317,523.666,802.129,523.936,802.22,524.3Zm7.129-8.575a3.569,3.569,0,0,0-2.91.871c-.571.428-1.179.807-1.775,1.2-1.911,1.264-3.833,2.513-5.734,3.793-.807.543-.771.561-.3,1.42.2.364.385.388.739.211q3.984-1.992,7.986-3.949a5.294,5.294,0,0,0,2.858-2.507c.477-1.066.549-1.035-.644-1.041Zm-.975,8.694c-.071-.982-.156-2.076-.225-3.171-.02-.319-.12-.379-.4-.223-.416.23-.841.445-1.273.644a.561.561,0,0,0-.328.8c.527,1.5,1.043,3.009,1.565,4.514.047.135.073.313.254.318a.465.465,0,0,0,.389-.267,1,1,0,0,0,.1-.693A11.327,11.327,0,0,1,808.374,524.422Zm-8.508-12.308a.616.616,0,0,0-.538.227c-.091.141.031.241.113.333q1.632,1.858,3.266,3.714a.476.476,0,0,0,.752.086c.394-.3.816-.558,1.234-.821.233-.147.273-.256.015-.425-1.517-.995-3.027-2-4.542-3A1.324,1.324,0,0,0,799.866,512.113Z" transform="translate(-785.67 -503.646)" fill="#fff"/>
</svg>
