<svg xmlns="http://www.w3.org/2000/svg" width="32.385" height="19.215" viewBox="0 0 32.385 19.215">
  <g id="unhide_icon" data-name="unhide icon" transform="translate(-338.116 -293.766)">
    <g id="Group_1401" data-name="Group 1401" transform="translate(338.116 293.766)">
      <path id="Path_6893" data-name="Path 6893" d="M354.309,295.856c5.184,0,10.081,2.552,13.687,7.069a.724.724,0,0,1,0,.9c-3.605,4.517-8.5,7.068-13.687,7.068s-10.081-2.552-13.687-7.068a.723.723,0,0,1,0-.9c3.605-4.517,8.5-7.069,13.687-7.069m0-2.09c-6.289,0-11.938,3.292-15.834,8.522a1.822,1.822,0,0,0,0,2.17c3.9,5.23,9.545,8.522,15.834,8.522s11.938-3.292,15.834-8.522a1.822,1.822,0,0,0,0-2.17c-3.9-5.23-9.545-8.522-15.834-8.522Z" transform="translate(-338.116 -293.766)"/>
    </g>
    <g id="Group_1402" data-name="Group 1402" transform="translate(348.721 297.786)">
      <path id="Path_6894" data-name="Path 6894" d="M377.138,308.529a3.5,3.5,0,1,1-3.5,3.5,3.5,3.5,0,0,1,3.5-3.5m0-2.09a5.588,5.588,0,1,0,5.588,5.588,5.588,5.588,0,0,0-5.588-5.588Z" transform="translate(-371.55 -306.439)"/>
    </g>
  </g>
</svg>
